<svg width="37" height="35" viewBox="0 0 37 35" fill="none" xmlns="http://www.w3.org/2000/svg">
<path d="M24.8171 32.8647H24.0616C23.6446 32.8647 23.3062 33.1794 23.3062 33.567C23.3062 33.9547 23.6446 34.2693 24.0616 34.2693H24.8171C25.2342 34.2693 25.5726 33.9547 25.5726 33.567C25.5726 33.1794 25.2342 32.8647 24.8171 32.8647Z" fill="url(#paint0_linear_0_198)"/>
<path d="M29.5767 30.9686L28.8212 31.6709C28.5251 31.9462 28.5251 32.3928 28.8212 32.6681C29.1174 32.9434 29.5979 32.9434 29.894 32.6681L30.6495 31.9658C30.9457 31.6905 30.9457 31.2439 30.6495 30.9686C30.3534 30.6933 29.8729 30.6933 29.5767 30.9686Z" fill="url(#paint1_linear_0_198)"/>
<path d="M36.1492 32.8647H35.3937C34.9766 32.8647 34.6382 33.1794 34.6382 33.567C34.6382 33.9547 34.9766 34.2693 35.3937 34.2693H36.1492C36.5662 34.2693 36.9047 33.9547 36.9047 33.567C36.9047 33.1794 36.5662 32.8647 36.1492 32.8647Z" fill="url(#paint2_linear_0_198)"/>
<path d="M4.64558 14.1135L3.89008 14.8157C3.59393 15.091 3.59393 15.5377 3.89008 15.813C4.18624 16.0883 4.66673 16.0883 4.96288 15.813L5.71838 15.1107C6.01453 14.8354 6.01453 14.3888 5.71838 14.1135C5.42222 13.8382 4.94173 13.8382 4.64558 14.1135Z" fill="url(#paint3_linear_0_198)"/>
<path d="M7.44153 8.98682C7.0245 8.98682 6.68604 9.30144 6.68604 9.68911V10.3914C6.68604 10.7791 7.0245 11.0937 7.44153 11.0937C7.85856 11.0937 8.19702 10.7791 8.19702 10.3914V9.68911C8.19702 9.30144 7.85856 8.98682 7.44153 8.98682Z" fill="url(#paint4_linear_0_198)"/>
<path d="M12.5029 5.68597C12.2068 5.41067 11.7263 5.41067 11.4301 5.68597C11.134 5.96126 11.134 6.40792 11.4301 6.68322L12.1856 7.38551C12.4818 7.66081 12.9623 7.66081 13.2584 7.38551C13.5546 7.11022 13.5546 6.66356 13.2584 6.38826L12.5029 5.68597Z" fill="url(#paint5_linear_0_198)"/>
<path d="M17.4888 3.57915L16.7333 4.28145C16.4372 4.55675 16.4372 5.0034 16.7333 5.2787C17.0295 5.554 17.51 5.554 17.8061 5.2787L18.5616 4.57641C18.8578 4.30111 18.8578 3.85445 18.5616 3.57915C18.2655 3.30386 17.785 3.30386 17.4888 3.57915Z" fill="url(#paint6_linear_0_198)"/>
<path d="M23.0796 4.28143C22.7834 4.00613 22.3029 4.00613 22.0068 4.28143C21.7106 4.55672 21.7106 5.00338 22.0068 5.27868L22.7623 5.98097C23.0584 6.25627 23.5389 6.25627 23.8351 5.98097C24.1312 5.70567 24.1312 5.25902 23.8351 4.98372L23.0796 4.28143Z" fill="url(#paint7_linear_0_198)"/>
<path d="M35.3939 23.44C35.5934 23.3627 35.7475 23.2082 35.817 23.0186C39.2318 14.268 34.3695 4.60025 24.956 1.42589C15.5426 -1.74848 5.14249 2.77007 1.72766 11.5206C0.990303 13.4098 0.623133 15.4057 0.641265 17.4143C0.641265 17.934 0.641265 18.4396 0.716814 18.9453C1.51915 27.6467 9.37778 34.3157 18.7731 34.2693C19.1901 34.2693 19.5286 33.9547 19.5286 33.567C19.5286 32.1624 19.8308 30.5191 21.2964 30.0134C21.6863 29.8758 21.8827 29.4698 21.7346 29.1075C21.721 29.0765 21.7059 29.0456 21.6893 29.0162C21.5291 28.1439 21.5956 27.2478 21.8857 26.4036C21.9643 26.023 21.6969 25.655 21.2859 25.5819C21.1786 25.5623 21.0698 25.5651 20.964 25.589C16.1062 26.714 11.1864 23.9653 9.97614 19.4481C9.8054 18.8104 9.71474 18.1559 9.70718 17.4986C9.70718 12.8438 13.7657 9.07104 18.7731 9.07104C23.7805 9.09492 27.8179 12.8873 27.7922 17.5407C27.7831 19.156 27.2754 20.7361 26.328 22.0915C26.0984 22.416 26.1951 22.8514 26.5441 23.0635C26.6378 23.1211 26.7451 23.1576 26.8569 23.1731C27.1591 23.1731 27.4764 23.1731 27.7786 23.1731C28.3981 23.1239 29.0176 23.2616 29.5464 23.5664C29.8396 23.8346 30.311 23.8346 30.6041 23.5664C31.0423 23.145 31.4805 23.0748 32.3871 23.0748H33.0821C33.6654 23.0776 34.2395 23.2068 34.7593 23.454C34.9618 23.5355 35.1945 23.5312 35.3939 23.44ZM8.19619 16.9227C7.96955 16.9789 7.74743 17.0491 7.53136 17.1334H7.4407C7.25787 17.2106 7.08109 17.2991 6.91186 17.4002H6.8212L6.41323 17.6811L6.08081 17.9621C5.63961 18.5548 4.88865 18.8821 4.11653 18.8189C3.74483 18.8175 3.37464 18.7739 3.01351 18.6925L2.69621 18.5941L2.15225 18.3975C2.15225 18.0744 2.15225 17.7373 2.15225 17.4143C2.17189 8.88142 9.62861 1.97789 18.8078 1.99615C23.8032 2.00598 28.528 4.10303 31.6769 7.7086C30.7854 7.88557 29.8637 7.88557 28.9722 7.7086C28.5084 7.62713 28.0385 7.58078 27.567 7.56814C27.3117 7.57376 27.0563 7.61168 26.8115 7.6805H26.6453C26.3975 7.75495 26.1603 7.85467 25.9352 7.97547C25.7251 8.09907 25.5287 8.24093 25.3459 8.39684L25.2099 8.50921C25.0195 8.68057 24.8473 8.86878 24.6962 9.07104C22.9268 8.03446 20.8628 7.51617 18.7731 7.58218C13.1311 7.57516 8.47724 11.685 8.19619 16.9227Z" fill="url(#paint8_linear_0_198)"/>
<defs>
<linearGradient id="paint0_linear_0_198" x1="25.8155" y1="33.5551" x2="21.4174" y2="33.5551" gradientUnits="userSpaceOnUse">
<stop stop-color="#F08324"/>
<stop offset="1" stop-color="#AC3C09"/>
</linearGradient>
<linearGradient id="paint1_linear_0_198" x1="31.1151" y1="31.8004" x2="26.7054" y2="31.8004" gradientUnits="userSpaceOnUse">
<stop stop-color="#F08324"/>
<stop offset="1" stop-color="#AC3C09"/>
</linearGradient>
<linearGradient id="paint2_linear_0_198" x1="37.1475" y1="33.5551" x2="32.7495" y2="33.5551" gradientUnits="userSpaceOnUse">
<stop stop-color="#F08324"/>
<stop offset="1" stop-color="#AC3C09"/>
</linearGradient>
<linearGradient id="paint3_linear_0_198" x1="6.18398" y1="14.9453" x2="1.7742" y2="14.9453" gradientUnits="userSpaceOnUse">
<stop stop-color="#F08324"/>
<stop offset="1" stop-color="#AC3C09"/>
</linearGradient>
<linearGradient id="paint4_linear_0_198" x1="8.35891" y1="10.0224" x2="5.42688" y2="10.0224" gradientUnits="userSpaceOnUse">
<stop stop-color="#F08324"/>
<stop offset="1" stop-color="#AC3C09"/>
</linearGradient>
<linearGradient id="paint5_linear_0_198" x1="13.724" y1="6.51784" x2="9.31424" y2="6.51784" gradientUnits="userSpaceOnUse">
<stop stop-color="#F08324"/>
<stop offset="1" stop-color="#AC3C09"/>
</linearGradient>
<linearGradient id="paint6_linear_0_198" x1="19.0272" y1="4.41103" x2="14.6175" y2="4.41103" gradientUnits="userSpaceOnUse">
<stop stop-color="#F08324"/>
<stop offset="1" stop-color="#AC3C09"/>
</linearGradient>
<linearGradient id="paint7_linear_0_198" x1="24.3007" y1="5.1133" x2="19.8909" y2="5.1133" gradientUnits="userSpaceOnUse">
<stop stop-color="#F08324"/>
<stop offset="1" stop-color="#AC3C09"/>
</linearGradient>
<linearGradient id="paint8_linear_0_198" x1="40.7947" y1="17.0532" x2="-29.5829" y2="17.0532" gradientUnits="userSpaceOnUse">
<stop stop-color="#F08324"/>
<stop offset="1" stop-color="#AC3C09"/>
</linearGradient>
</defs>
</svg>
