<svg width="217" height="80" viewBox="0 0 217 80" fill="none" xmlns="http://www.w3.org/2000/svg">
<path d="M0.453 78H-0.546999V79H0.453V78ZM0.453 2.02999V1.02999H-0.546999V2.02999H0.453ZM46.677 2.02999H47.677V1.02999H46.677V2.02999ZM46.677 16.796V17.796H47.677V16.796H46.677ZM15.968 16.796V15.796H14.968V16.796H15.968ZM15.968 32.525H14.968V33.525H15.968V32.525ZM40.043 32.525H41.043V31.525H40.043V32.525ZM40.043 47.291V48.291H41.043V47.291H40.043ZM15.968 47.291V46.291H14.968V47.291H15.968ZM15.968 78V79H16.968V78H15.968ZM1.453 78L1.453 2.02999H-0.546999L-0.546999 78H1.453ZM0.453 3.02999H46.677V1.02999H0.453V3.02999ZM45.677 2.02999V16.796H47.677V2.02999H45.677ZM46.677 15.796H15.968V17.796H46.677V15.796ZM14.968 16.796V32.525H16.968V16.796H14.968ZM15.968 33.525H40.043V31.525H15.968V33.525ZM39.043 32.525V47.291H41.043V32.525H39.043ZM40.043 46.291H15.968V48.291H40.043V46.291ZM14.968 47.291V78H16.968V47.291H14.968ZM15.968 77H0.453V79H15.968V77ZM44.1441 78L43.2258 77.6042L42.6242 79H44.1441V78ZM76.8861 2.02999V1.02999H76.2282L75.9678 1.6342L76.8861 2.02999ZM90.6891 2.02999L91.607 1.63311L91.3462 1.02999H90.6891V2.02999ZM123.538 78V79H125.06L124.456 77.6031L123.538 78ZM107.274 78L106.354 78.3919L106.613 79H107.274V78ZM99.8911 60.666L100.811 60.2741L100.552 59.666H99.8911V60.666ZM67.4701 60.666V59.666H66.8053L66.548 60.279L67.4701 60.666ZM60.1941 78V79H60.8589L61.1162 78.387L60.1941 78ZM83.7341 22.467L84.6555 22.0784L83.7388 19.9048L82.8141 22.075L83.7341 22.467ZM73.2481 47.077L72.3281 46.685L71.735 48.077H73.2481V47.077ZM94.1131 47.077V48.077H95.6201L95.0345 46.6884L94.1131 47.077ZM45.0625 78.3958L77.8045 2.42579L75.9678 1.6342L43.2258 77.6042L45.0625 78.3958ZM76.8861 3.02999H90.6891V1.02999H76.8861V3.02999ZM89.7712 2.42688L122.62 78.3969L124.456 77.6031L91.607 1.63311L89.7712 2.42688ZM123.538 77H107.274V79H123.538V77ZM108.194 77.6081L100.811 60.2741L98.9711 61.0579L106.354 78.3919L108.194 77.6081ZM99.8911 59.666H67.4701V61.666H99.8911V59.666ZM66.548 60.279L59.272 77.613L61.1162 78.387L68.3922 61.053L66.548 60.279ZM60.1941 77H44.1441V79H60.1941V77ZM82.8141 22.075L72.3281 46.685L74.1681 47.469L84.6541 22.859L82.8141 22.075ZM73.2481 48.077H94.1131V46.077H73.2481V48.077ZM95.0345 46.6884L84.6555 22.0784L82.8127 22.8556L93.1917 47.4656L95.0345 46.6884ZM135.724 67.835L135.014 68.5388L135.021 68.5454L135.724 67.835ZM135.724 12.302L136.432 13.0091L135.724 12.302ZM191.257 12.302L190.547 13.0058L190.554 13.0124L191.257 12.302ZM196.607 61.308L195.761 60.7747L195.292 61.5191L195.971 62.0792L196.607 61.308ZM216.83 78V79H219.613L217.467 77.2288L216.83 78ZM195.002 78L194.366 78.7716L194.643 79H195.002V78ZM187.084 71.473L187.72 70.7014L187.106 70.1951L186.475 70.6801L187.084 71.473ZM174.886 61.308L175.398 62.1671L176.609 61.4456L175.528 60.541L174.886 61.308ZM163.758 51.999L162.989 51.3603L162.353 52.1268L163.117 52.766L163.758 51.999ZM172.639 41.299L173.282 40.5325L172.512 39.8873L171.87 40.6603L172.639 41.299ZM184.516 51.25L183.874 52.0165L184.837 52.8228L185.407 51.7045L184.516 51.25ZM180.236 22.895L179.513 23.5857L179.519 23.5912L179.524 23.5967L180.236 22.895ZM146.745 22.895L146.028 22.1987L146.028 22.1988L146.745 22.895ZM146.745 57.242L146.022 57.9327L146.028 57.9382L146.033 57.9437L146.745 57.242ZM163.544 78.284C152.965 78.284 143.945 74.5718 136.428 67.1246L135.021 68.5454C142.912 76.3635 152.438 80.284 163.544 80.284V78.284ZM136.435 67.1312C128.988 59.6144 125.275 50.594 125.275 40.015H123.275C123.275 51.1213 127.196 60.6476 135.014 68.5388L136.435 67.1312ZM125.275 40.015C125.275 29.4362 128.987 20.4533 136.432 13.0091L135.017 11.5949C127.196 19.416 123.275 28.9085 123.275 40.015H125.275ZM136.432 13.0091C143.949 5.49162 152.968 1.74599 163.544 1.74599V-0.254007C152.435 -0.254007 142.908 3.70437 135.017 11.5949L136.432 13.0091ZM163.544 1.74599C174.12 1.74599 183.102 5.49131 190.547 13.0058L191.968 11.5982C184.147 3.70467 174.654 -0.254007 163.544 -0.254007V1.74599ZM190.554 13.0124C198.068 20.4573 201.813 29.4392 201.813 40.015H203.813C203.813 28.9054 199.855 19.412 191.961 11.5916L190.554 13.0124ZM201.813 40.015C201.813 47.4557 199.8 54.3689 195.761 60.7747L197.453 61.8413C201.69 55.1217 203.813 47.8397 203.813 40.015H201.813ZM195.971 62.0792L216.194 78.7712L217.467 77.2288L197.244 60.5368L195.971 62.0792ZM216.83 77H195.002V79H216.83V77ZM195.638 77.2284L187.72 70.7014L186.448 72.2446L194.366 78.7716L195.638 77.2284ZM186.475 70.6801C179.881 75.747 172.251 78.284 163.544 78.284V80.284C172.671 80.284 180.734 77.6137 187.694 72.2659L186.475 70.6801ZM163.544 65.304C167.919 65.304 171.879 64.2639 175.398 62.1671L174.375 60.4489C171.189 62.3468 167.588 63.304 163.544 63.304V65.304ZM175.528 60.541L164.4 51.232L163.117 52.766L174.245 62.075L175.528 60.541ZM164.528 52.6377L173.409 41.9377L171.87 40.6603L162.989 51.3603L164.528 52.6377ZM171.997 42.0655L183.874 52.0165L185.159 50.4835L173.282 40.5325L171.997 42.0655ZM185.407 51.7045C187.264 48.0658 188.191 44.1647 188.191 40.015H186.191C186.191 43.8546 185.336 47.4435 183.626 50.7955L185.407 51.7045ZM188.191 40.015C188.191 33.0514 185.773 27.0915 180.949 22.1933L179.524 23.5967C183.973 28.1145 186.191 33.5679 186.191 40.015H188.191ZM180.96 22.2043C176.207 17.229 170.382 14.726 163.544 14.726V16.726C169.832 16.726 175.135 19.0023 179.513 23.5857L180.96 22.2043ZM163.544 14.726C156.707 14.726 150.85 17.2284 146.028 22.1987L147.463 23.5913C151.915 19.0029 157.257 16.726 163.544 16.726V14.726ZM146.028 22.1988C141.277 27.098 138.897 33.0563 138.897 40.015H140.897C140.897 33.563 143.083 28.1079 147.463 23.5911L146.028 22.1988ZM138.897 40.015C138.897 46.9735 141.276 52.9644 146.022 57.9327L147.469 56.5513C143.084 51.961 140.897 46.4672 140.897 40.015H138.897ZM146.033 57.9437C150.856 62.8411 156.712 65.304 163.544 65.304V63.304C157.252 63.304 151.908 61.0589 147.458 56.5403L146.033 57.9437Z" fill="white"/>
</svg>
