<svg width="170" height="77" viewBox="0 0 170 77" fill="none" xmlns="http://www.w3.org/2000/svg">
<path d="M0.32 60H-0.68V61H0.32V60ZM0.32 3.2V2.2H-0.68V3.2H0.32ZM34.88 3.2H35.88V2.2H34.88V3.2ZM34.88 14.24V15.24H35.88V14.24H34.88ZM11.92 14.24V13.24H10.92V14.24H11.92ZM11.92 26H10.92V27H11.92V26ZM29.92 26H30.92V25H29.92V26ZM29.92 37.04V38.04H30.92V37.04H29.92ZM11.92 37.04V36.04H10.92V37.04H11.92ZM11.92 60V61H12.92V60H11.92ZM1.32 60L1.32 3.2H-0.68L-0.68 60H1.32ZM0.32 4.2H34.88V2.2H0.32V4.2ZM33.88 3.2V14.24H35.88V3.2H33.88ZM34.88 13.24H11.92V15.24H34.88V13.24ZM10.92 14.24V26H12.92V14.24H10.92ZM11.92 27H29.92V25H11.92V27ZM28.92 26V37.04H30.92V26H28.92ZM29.92 36.04H11.92V38.04H29.92V36.04ZM10.92 37.04V60H12.92V37.04H10.92ZM11.92 59H0.32V61H11.92V59ZM42.7981 56.08L42.0236 56.7126L42.0299 56.7202L42.7981 56.08ZM38.8781 20V19H37.8781V20H38.8781ZM49.8381 20H50.8381V19H49.8381V20ZM62.6381 48L61.8488 47.3861L61.8434 47.393L61.8381 47.4L62.6381 48ZM64.8781 20V19H63.8781V20H64.8781ZM75.8381 20H76.8381V19H75.8381V20ZM75.8381 60V61H76.8381V60H75.8381ZM64.8781 60H63.8781V61H64.8781V60ZM64.8781 55.44H65.8781V52.177L64.0498 54.8797L64.8781 55.44ZM53.9181 59.88C49.4218 59.88 46.0152 58.3784 43.5663 55.4398L42.0299 56.7202C44.9144 60.1816 48.9211 61.88 53.9181 61.88V59.88ZM43.5727 55.4475C41.1444 52.4741 39.8781 48.427 39.8781 43.2H37.8781C37.8781 48.7464 39.2252 53.2859 42.0236 56.7125L43.5727 55.4475ZM39.8781 43.2V20H37.8781V43.2H39.8781ZM38.8781 21H49.8381V19H38.8781V21ZM48.8381 20V41.36H50.8381V20H48.8381ZM48.8381 41.36C48.8381 44.6222 49.4152 47.2484 50.7244 49.0812C52.0778 50.9761 54.1086 51.88 56.6381 51.88V49.88C54.6343 49.88 53.2651 49.1973 52.3519 47.9188C51.3944 46.5783 50.8381 44.4445 50.8381 41.36H48.8381ZM56.6381 51.88C59.4885 51.88 61.7951 50.7907 63.4381 48.6L61.8381 47.4C60.6012 49.0493 58.9078 49.88 56.6381 49.88V51.88ZM63.4275 48.6139C65.1132 46.4465 65.8781 43.3632 65.8781 39.52H63.8781C63.8781 43.1435 63.1497 45.7135 61.8488 47.3861L63.4275 48.6139ZM65.8781 39.52V20H63.8781V39.52H65.8781ZM64.8781 21H75.8381V19H64.8781V21ZM74.8381 20V60H76.8381V20H74.8381ZM75.8381 59H64.8781V61H75.8381V59ZM65.8781 60V55.44H63.8781V60H65.8781ZM64.0498 54.8797C61.805 58.1982 58.4818 59.88 53.9181 59.88V61.88C59.0612 61.88 63.0446 59.9352 65.7064 56.0003L64.0498 54.8797ZM86.3894 60H85.3894V61H86.3894V60ZM86.3894 -3.8147e-06V-1H85.3894V-3.8147e-06H86.3894ZM97.3494 -3.8147e-06H98.3494V-1H97.3494V-3.8147e-06ZM97.3494 60V61H98.3494V60H97.3494ZM87.3894 60V-3.8147e-06H85.3894V60H87.3894ZM86.3894 0.999996H97.3494V-1H86.3894V0.999996ZM96.3494 -3.8147e-06V60H98.3494V-3.8147e-06H96.3494ZM97.3494 59H86.3894V61H97.3494V59ZM107.874 60H106.874V61H107.874V60ZM107.874 -3.8147e-06V-1H106.874V-3.8147e-06H107.874ZM118.834 -3.8147e-06H119.834V-1H118.834V-3.8147e-06ZM118.834 60V61H119.834V60H118.834ZM108.874 60V-3.8147e-06H106.874V60H108.874ZM107.874 0.999996H118.834V-1H107.874V0.999996ZM117.834 -3.8147e-06V60H119.834V-3.8147e-06H117.834ZM118.834 59H107.874V61H118.834V59ZM144.558 76.72V77.72H145.209L145.472 77.1249L144.558 76.72ZM132.638 76.72L131.724 76.3149L131.101 77.72H132.638V76.72ZM141.038 57.76L141.952 58.1651L142.132 57.7591L141.952 57.3535L141.038 57.76ZM124.238 20V19H122.699L123.324 20.4065L124.238 20ZM136.238 20L137.162 19.6178L136.907 19H136.238V20ZM146.958 45.92L146.034 46.3022L146.962 48.5449L147.883 46.2997L146.958 45.92ZM157.598 20V19H156.928L156.673 19.6203L157.598 20ZM169.678 20L170.592 20.4049L171.215 19H169.678V20ZM144.558 75.72H132.638V77.72H144.558V75.72ZM133.552 77.1251L141.952 58.1651L140.124 57.3549L131.724 76.3149L133.552 77.1251ZM141.952 57.3535L125.152 19.5935L123.324 20.4065L140.124 58.1665L141.952 57.3535ZM124.238 21H136.238V19H124.238V21ZM135.314 20.3822L146.034 46.3022L147.882 45.5378L137.162 19.6178L135.314 20.3822ZM147.883 46.2997L158.523 20.3797L156.673 19.6203L146.033 45.5403L147.883 46.2997ZM157.598 21H169.678V19H157.598V21ZM168.764 19.5951L143.644 76.3151L145.472 77.1249L170.592 20.4049L168.764 19.5951Z" fill="white"/>
</svg>
