<svg width="207" height="207" viewBox="0 0 207 207" fill="none" xmlns="http://www.w3.org/2000/svg">
<circle cx="102.555" cy="100.979" r="65" fill="#F08324"/>
<path d="M100.293 17.1828L100.743 29.2444L93.7101 29.5004L93.6542 28.0054L99.1076 27.8069L98.9711 24.1545L94.537 24.3159L94.4811 22.8209L98.9152 22.6595L98.7685 18.7353L93.3151 18.9338L93.2592 17.4388L100.293 17.1828Z" fill="white" fill-opacity="0.83"/>
<path d="M85.793 18.464L87.6821 18.0315L84.448 25.0325L90.0835 29.8635L88.2441 30.2846L83.7727 26.4776L81.3173 31.8703L79.4779 32.2913L82.5423 25.4688L76.7119 20.5429L78.5845 20.1142L83.2305 24.0033L85.793 18.464Z" fill="white" fill-opacity="0.83"/>
<path d="M68.906 35.5533C67.9213 35.1931 67.2154 34.5003 66.7883 33.475C66.3612 32.4498 66.3612 31.4477 66.7881 30.4687C67.209 29.5048 67.9852 28.775 69.1167 28.2791L71.0474 27.4329L69.3544 23.3684L70.8024 22.7338L75.4435 33.8759L72.0648 35.3566C70.9333 35.8525 69.8804 35.9181 68.906 35.5533ZM68.2055 30.9982C67.9498 31.5927 67.9549 32.2091 68.2208 32.8472C68.4866 33.4854 68.9173 33.9153 69.5128 34.1368C70.098 34.3628 70.7591 34.3143 71.4961 33.9913L73.4268 33.1452L71.6096 28.7825L69.6788 29.6287C68.9418 29.9517 68.4507 30.4082 68.2055 30.9982Z" fill="white" fill-opacity="0.83"/>
<path d="M58.0836 29.027L64.5309 39.2308L63.2155 40.108L57.5674 31.1689L52.7162 34.4041L51.9171 33.1394L58.0836 29.027Z" fill="white" fill-opacity="0.83"/>
<path d="M43.5322 42.1952C42.5994 43.1376 42.1391 44.255 42.1512 45.5472C42.1553 46.8476 42.6152 47.9773 43.5308 48.9363C44.4465 49.8954 45.5362 50.3887 46.8 50.4163C48.0558 50.452 49.1501 49.9986 50.0828 49.0562C51.0076 48.1218 51.468 47.0044 51.4639 45.7041C51.4518 44.4119 50.9879 43.2862 50.0722 42.3271C49.1566 41.3681 48.0708 40.8707 46.815 40.835C45.5513 40.8074 44.457 41.2608 43.5322 42.1952ZM42.4991 41.1132C43.7189 39.8807 45.1701 39.268 46.8528 39.275C48.5432 39.2902 49.9911 39.929 51.1964 41.1914C52.4016 42.4537 52.9925 43.9503 52.969 45.6811C52.9534 47.4201 52.3357 48.9058 51.1159 50.1382C49.8882 51.3787 48.433 51.9873 46.7505 51.964C45.0679 51.957 43.6239 51.3224 42.4187 50.06C41.2134 48.7976 40.6186 47.297 40.6342 45.558C40.6497 43.8352 41.2714 42.3536 42.4991 41.1132Z" fill="white" fill-opacity="0.83"/>
<path d="M33.7222 51.6335L43.6718 58.4664L41.4365 61.9201C40.833 62.8525 40.1035 63.4167 39.248 63.6125C38.4019 63.8148 37.5631 63.6305 36.7316 63.0594C36.0029 62.559 35.5497 61.9248 35.372 61.1568C35.1881 60.3984 35.2957 59.5858 35.6947 58.7191L28.6234 59.5114L29.7041 57.8416L36.7522 57.054L37.3895 56.0692L32.8631 52.9608L33.7222 51.6335ZM38.5527 56.868L37.278 58.8375C36.8962 59.4274 36.7267 59.9707 36.7696 60.4674C36.8218 60.9706 37.0955 61.3921 37.5906 61.7322C38.0858 62.0722 38.5688 62.1703 39.0398 62.0265C39.5201 61.8891 39.9511 61.5254 40.3329 60.9355L41.6076 58.966L38.5527 56.868Z" fill="white" fill-opacity="0.83"/>
<path d="M25.9487 64.9288L36.9605 69.8709L34.2262 76.356L32.8614 75.7435L34.9814 70.7151L31.6469 69.2186L29.9231 73.3071L28.5582 72.6945L30.282 68.6061L26.6993 66.9982L24.5792 72.0265L23.2144 71.4139L25.9487 64.9288Z" fill="white" fill-opacity="0.83"/>
<path d="M18.9338 86.6137L30.3855 93.2617L30.2522 94.5639L17.7109 98.5532L17.8789 96.9128L21.5356 95.747L22.1089 90.1493L18.7675 88.2372L18.9338 86.6137ZM28.1926 93.65L23.4641 90.9333L23.0189 95.2795L28.1926 93.65Z" fill="white" fill-opacity="0.83"/>
<path d="M17.8774 105.567L29.8992 104.49L30.2585 108.588C30.3555 109.694 30.1274 110.597 29.5742 111.295C29.0324 111.992 28.2591 112.385 27.2545 112.476C26.374 112.554 25.6283 112.354 25.0174 111.874C24.4075 111.405 23.9937 110.708 23.7761 109.783L18.6968 114.915L18.5232 112.934L23.587 107.82L23.4846 106.652L18.0155 107.142L17.8774 105.567ZM24.8899 106.526L25.0948 108.863C25.1561 109.563 25.356 110.091 25.6945 110.448C26.0442 110.803 26.5182 110.954 27.1164 110.901C27.7147 110.847 28.155 110.614 28.4375 110.202C28.7312 109.789 28.8473 109.232 28.786 108.532L28.5811 106.195L24.8899 106.526Z" fill="white" fill-opacity="0.83"/>
<path d="M20.6512 123.347L30.8363 120.505L29.8693 116.875L31.3103 116.473L33.6425 125.229L32.2015 125.631L31.2345 122L21.0494 124.842L20.6512 123.347Z" fill="white" fill-opacity="0.83"/>
<path d="M28.6307 143.432L34.531 136.943L25.9717 138.166L25.3356 136.907L34.5044 128.293L35.2477 129.765L28.0676 136.435L38.1328 135.026L31.2094 142.657L40.6654 140.494L41.4087 141.966L29.2667 144.692L28.6307 143.432Z" fill="white" fill-opacity="0.83"/>
<path d="M39.5105 156.668C40.37 157.677 41.4273 158.212 42.6826 158.271C43.9453 158.339 45.0694 157.929 46.0549 157.042C47.0405 156.155 47.5842 155.063 47.6862 153.767C47.7955 152.48 47.4205 151.331 46.561 150.322C45.7089 149.32 44.6515 148.786 43.3888 148.718C42.1336 148.659 41.0131 149.073 40.0276 149.961C39.042 150.848 38.4946 151.935 38.3853 153.222C38.2833 154.518 38.6584 155.667 39.5105 156.668ZM38.3986 157.669C37.2746 156.348 36.7661 154.824 36.873 153.097C36.9883 151.362 37.6946 149.911 38.9918 148.744C40.289 147.576 41.7771 147.052 43.456 147.172C45.1433 147.284 46.549 148 47.6729 149.321C48.8042 150.65 49.3085 152.177 49.1858 153.903C49.079 155.631 48.3769 157.078 47.0797 158.246C45.7824 159.413 44.2902 159.941 42.6028 159.829C40.9313 159.718 39.5298 158.998 38.3986 157.669Z" fill="white" fill-opacity="0.83"/>
<path d="M48.2946 167.204L55.4195 157.462L58.6708 159.982C59.5485 160.663 60.062 161.448 60.2113 162.338C60.3672 163.219 60.1475 164.066 59.5521 164.88C59.0302 165.594 58.3916 166.016 57.6361 166.147C56.8896 166.285 56.1045 166.121 55.2809 165.654L55.7106 172.954L54.1388 171.735L53.7124 164.459L52.7854 163.741L49.5441 168.173L48.2946 167.204ZM53.6183 162.602L55.4723 164.039C56.0276 164.47 56.5478 164.68 57.033 164.669C57.5248 164.649 57.948 164.396 58.3026 163.911C58.6572 163.427 58.7759 162.938 58.6587 162.446C58.5482 161.944 58.2153 161.478 57.66 161.048L55.806 159.61L53.6183 162.602Z" fill="white" fill-opacity="0.83"/>
<path d="M67.9674 179.49L64.7183 171.408L62.2491 176.596L60.8536 175.89L66.0406 164.991L67.436 165.698L65.1859 170.425L72.1381 168.077L73.9735 169.006L66.3774 171.6L69.9544 180.496L67.9674 179.49Z" fill="white" fill-opacity="0.83"/>
<path d="M78.7377 183.441C77.5619 183.101 76.6857 182.5 76.1091 181.637C75.5435 180.777 75.3741 179.885 75.601 178.96L77.1197 179.399C77.0222 180.019 77.174 180.565 77.5751 181.035C77.9871 181.508 78.498 181.832 79.1076 182.009C79.7391 182.191 80.3046 182.184 80.8041 181.986C81.3037 181.789 81.6245 181.427 81.7666 180.902C82.0063 180.016 81.6327 179.206 80.6456 178.472L79.205 177.419C78.3764 176.837 77.8154 176.22 77.522 175.569C77.2395 174.921 77.2038 174.186 77.4149 173.362C77.6665 172.432 78.1929 171.788 78.9941 171.43C79.8092 171.064 80.7339 171.031 81.7681 171.33C82.8568 171.645 83.6311 172.211 84.0908 173.028C84.5644 173.838 84.7254 174.675 84.5736 175.539L83.0712 175.104C83.0866 174.484 82.9313 173.973 82.6055 173.572C82.2905 173.174 81.8718 172.9 81.3492 172.748C80.7831 172.585 80.271 172.59 79.813 172.764C79.3659 172.941 79.0772 173.271 78.9469 173.752C78.8167 174.233 78.8437 174.654 79.0281 175.014C79.2124 175.374 79.5704 175.743 80.102 176.121L81.4416 177.093C82.2673 177.685 82.8402 178.323 83.1603 179.005C83.4834 179.677 83.5295 180.439 83.2986 181.292C83.0352 182.266 82.4806 182.949 81.6348 183.341C80.7921 183.723 79.8263 183.756 78.7377 183.441Z" fill="white" fill-opacity="0.83"/>
<path d="M108.072 187.79L107.688 175.726L114.722 175.511L114.77 177.006L109.316 177.173L109.432 180.826L113.867 180.69L113.915 182.186L109.48 182.321L109.605 186.246L115.059 186.079L115.107 187.575L108.072 187.79Z" fill="white" fill-opacity="0.83"/>
<path d="M122.457 186.597L120.566 187.022L123.846 180.031L118.247 175.173L120.089 174.759L124.531 178.588L127.022 173.203L128.863 172.789L125.754 179.602L131.546 184.556L129.672 184.977L125.056 181.066L122.457 186.597Z" fill="white" fill-opacity="0.83"/>
<path d="M139.329 169.591C140.309 169.956 141.008 170.652 141.427 171.681C141.845 172.71 141.838 173.714 141.404 174.693C140.977 175.658 140.197 176.386 139.064 176.879L137.131 177.72L138.79 181.798L137.34 182.429L132.793 171.248L136.175 169.777C137.308 169.284 138.359 169.222 139.329 169.591ZM139.994 174.158C140.254 173.563 140.253 172.945 139.993 172.305C139.732 171.665 139.306 171.232 138.713 171.008C138.131 170.78 137.471 170.826 136.733 171.147L134.8 171.988L136.58 176.365L138.513 175.525C139.251 175.204 139.745 174.748 139.994 174.158Z" fill="white" fill-opacity="0.83"/>
<path d="M149.991 176.227L143.64 165.963L144.957 165.088L150.521 174.08L155.378 170.853L156.165 172.126L149.991 176.227Z" fill="white" fill-opacity="0.83"/>
<path d="M164.521 163.141C165.455 162.2 165.92 161.081 165.915 159.783C165.919 158.477 165.467 157.34 164.561 156.372C163.655 155.404 162.573 154.903 161.315 154.868C160.065 154.825 158.973 155.275 158.039 156.216C157.113 157.149 156.648 158.268 156.645 159.574C156.649 160.872 157.105 162.005 158.011 162.973C158.917 163.941 159.995 164.446 161.245 164.489C162.503 164.524 163.595 164.075 164.521 163.141ZM165.543 164.234C164.322 165.464 162.874 166.072 161.199 166.055C159.516 166.031 158.078 165.381 156.885 164.107C155.693 162.833 155.113 161.327 155.146 159.589C155.172 157.843 155.795 156.354 157.017 155.123C158.246 153.885 159.698 153.282 161.373 153.314C163.048 153.331 164.482 153.976 165.675 155.25C166.867 156.524 167.451 158.035 167.425 159.781C167.4 161.51 166.773 162.995 165.543 164.234Z" fill="white" fill-opacity="0.83"/>
<path d="M174.311 153.794L164.429 146.863L166.67 143.413C167.275 142.481 168.003 141.92 168.856 141.73C169.7 141.533 170.535 141.724 171.36 142.303C172.084 142.811 172.533 143.451 172.707 144.223C172.887 144.986 172.776 145.8 172.375 146.667L179.422 145.924L178.339 147.592L171.315 148.331L170.676 149.315L175.172 152.468L174.311 153.794ZM169.521 148.505L170.799 146.537C171.182 145.948 171.353 145.404 171.312 144.905C171.262 144.399 170.991 143.974 170.499 143.629C170.008 143.284 169.527 143.183 169.057 143.323C168.578 143.458 168.147 143.82 167.765 144.409L166.487 146.377L169.521 148.505Z" fill="white" fill-opacity="0.83"/>
<path d="M182.115 140.543L171.149 135.5L173.898 129.021L175.257 129.646L173.125 134.67L176.446 136.197L178.179 132.112L179.538 132.737L177.805 136.822L181.373 138.463L183.504 133.439L184.864 134.064L182.115 140.543Z" fill="white" fill-opacity="0.83"/>
<path d="M189.217 118.872L177.798 112.142L177.937 110.84L190.491 106.938L190.316 108.578L186.656 109.718L186.058 115.313L189.39 117.25L189.217 118.872ZM179.992 111.769L184.707 114.52L185.171 110.175L179.992 111.769Z" fill="white" fill-opacity="0.83"/>
<path d="M190.367 99.8971L178.339 100.91L178.004 96.8101C177.914 95.7031 178.147 94.802 178.705 94.1067C179.251 93.4124 180.026 93.023 181.031 92.9383C181.912 92.8641 182.657 93.0686 183.265 93.5519C183.872 94.024 184.281 94.723 184.493 95.6492L189.603 90.5442L189.765 92.5266L184.671 97.6132L184.766 98.7823L190.238 98.3213L190.367 99.8971ZM183.36 98.9008L183.169 96.5626C183.112 95.8622 182.915 95.3329 182.579 94.9745C182.232 94.6171 181.758 94.4636 181.16 94.514C180.561 94.5645 180.12 94.795 179.835 95.2057C179.539 95.6174 179.419 96.1734 179.476 96.8737L179.667 99.2119L183.36 98.9008Z" fill="white" fill-opacity="0.83"/>
<path d="M187.697 82.0751L177.502 84.8776L178.442 88.5151L176.999 88.9116L174.732 80.1389L176.174 79.7424L177.115 83.3799L187.31 80.5773L187.697 82.0751Z" fill="white" fill-opacity="0.83"/>
<path d="M179.856 61.9101L173.924 68.3946L182.469 67.1991L183.094 68.4642L173.886 77.0663L173.155 75.5878L180.365 68.9272L170.317 70.3028L177.279 62.678L167.833 64.8117L167.102 63.3332L179.231 60.6451L179.856 61.9101Z" fill="white" fill-opacity="0.83"/>
<path d="M169.086 48.6076C168.236 47.5894 167.187 47.0476 165.937 46.982C164.68 46.9078 163.559 47.3135 162.572 48.1992C161.585 49.0849 161.037 50.1781 160.927 51.4788C160.81 52.7707 161.177 53.9257 162.026 54.9439C162.869 55.9533 163.918 56.4952 165.175 56.5694C166.424 56.635 167.543 56.2249 168.529 55.3392C169.516 54.4535 170.068 53.3646 170.185 52.0727C170.294 50.7721 169.928 49.617 169.086 48.6076ZM170.199 47.6083C171.31 48.9397 171.807 50.4722 171.69 52.2058C171.564 53.9469 170.852 55.4004 169.553 56.5662C168.254 57.732 166.769 58.2506 165.098 58.1219C163.419 58.0008 162.024 57.2746 160.913 55.9431C159.795 54.603 159.302 53.0668 159.435 51.3343C159.552 49.6008 160.26 48.1511 161.559 46.9853C162.858 45.8194 164.347 45.2971 166.026 45.4182C167.69 45.5382 169.081 46.2682 170.199 47.6083Z" fill="white" fill-opacity="0.83"/>
<path d="M160.414 38.0378L153.275 47.7705L150.049 45.2175C149.178 44.5283 148.67 43.7365 148.526 42.8421C148.374 41.9569 148.597 41.1076 149.194 40.2942C149.716 39.5814 150.354 39.1618 151.107 39.0354C151.851 38.902 152.632 39.0724 153.45 39.5464L153.055 32.2144L154.615 33.4487L155.007 40.7565L155.926 41.4844L159.174 37.0567L160.414 38.0378ZM155.092 42.6222L153.252 41.1663C152.701 40.7303 152.184 40.5161 151.701 40.5237C151.211 40.5404 150.789 40.791 150.433 41.2753C150.078 41.7597 149.958 42.2494 150.072 42.7444C150.18 43.2485 150.509 43.7186 151.06 44.1547L152.9 45.6105L155.092 42.6222Z" fill="white" fill-opacity="0.83"/>
<path d="M140.905 25.6266L144.116 33.7577L146.596 28.5743L147.985 29.2936L142.776 40.1818L141.387 39.4624L143.647 34.7391L136.708 37.0386L134.881 36.0925L142.463 33.5519L138.928 24.6023L140.905 25.6266Z" fill="white" fill-opacity="0.83"/>
<path d="M130.257 21.6443C131.429 21.9943 132.302 22.6035 132.875 23.472C133.437 24.3372 133.603 25.2322 133.373 26.1569L131.858 25.7048C131.958 25.0842 131.808 24.537 131.409 24.0633C130.999 23.5863 130.49 23.2571 129.882 23.0756C129.252 22.8877 128.688 22.8907 128.188 23.0845C127.689 23.2784 127.367 23.6377 127.223 24.1623C126.981 25.0477 127.351 25.8618 128.334 26.6044L129.769 27.671C130.594 28.2601 131.152 28.8819 131.443 29.5362C131.723 30.1872 131.756 30.9243 131.542 31.7473C131.288 32.6764 130.76 33.317 129.959 33.6692C129.144 34.029 128.22 34.055 127.188 33.7471C126.102 33.4231 125.331 32.8501 124.875 32.0282C124.405 31.214 124.247 30.3747 124.402 29.5104L125.9 29.9575C125.883 30.579 126.036 31.0917 126.36 31.4958C126.673 31.8967 127.09 32.1749 127.612 32.3304C128.176 32.4989 128.688 32.4977 129.146 32.3269C129.593 32.1529 129.882 31.8254 130.014 31.3445C130.146 30.8635 130.12 30.4421 129.937 30.0801C129.754 29.7181 129.398 29.3458 128.869 28.9632L127.535 27.9798C126.712 27.3797 126.142 26.7367 125.825 26.0508C125.505 25.3759 125.461 24.6121 125.695 23.7595C125.961 22.7867 126.517 22.1072 127.363 21.7211C128.206 21.3459 129.171 21.3203 130.257 21.6443Z" fill="white" fill-opacity="0.83"/>
<circle cx="95.0548" cy="179.479" r="2.5" fill="white" fill-opacity="0.83"/>
<circle cx="114.055" cy="24.4785" r="2.5" fill="white" fill-opacity="0.83"/>
<rect x="70" y="100" width="15" height="7" fill="black"/>
<rect x="85" y="92" width="23" height="8" fill="black"/>
<rect x="116" y="92" width="8" height="8" fill="black"/>
<rect width="8" height="8" transform="matrix(-1 0 0 1 108 123)" fill="black"/>
<rect x="108" y="84" width="8" height="8" fill="black"/>
<rect width="8" height="8" transform="matrix(-1 0 0 1 116 115)" fill="black"/>
<rect x="100" y="76" width="8" height="8" fill="black"/>
<rect width="8" height="8" transform="matrix(-1 0 0 1 124 107)" fill="black"/>
<rect width="8" height="8" transform="matrix(-1 0 0 1 132 99)" fill="black"/>
<rect x="85" y="107" width="23" height="8" fill="black"/>
<circle cx="103.5" cy="103.5" r="103" stroke="white" stroke-opacity="0.32"/>
</svg>
