<svg width="27" height="35" viewBox="0 0 27 35" fill="none" xmlns="http://www.w3.org/2000/svg">
<path fill-rule="evenodd" clip-rule="evenodd" d="M19.1637 15.2865H14.5915V19.5367C14.5915 20.1003 14.3506 20.6408 13.9219 21.0394C13.4932 21.4379 12.9117 21.6618 12.3054 21.6618H7.73325C7.12694 21.6618 6.54547 21.4379 6.11675 21.0394C5.68802 20.6408 5.44717 20.1003 5.44717 19.5367V6.78607C5.44717 6.22246 5.68802 5.68193 6.11675 5.2834C6.54547 4.88486 7.12694 4.66097 7.73325 4.66097H12.3054C12.9117 4.66097 13.4932 4.88486 13.9219 5.2834C14.3506 5.68193 14.5915 6.22246 14.5915 6.78607H19.1637C19.1637 5.09524 18.4411 3.47365 17.1549 2.27805C15.8688 1.08245 14.1243 0.410767 12.3054 0.410767H7.73325C5.91433 0.410767 4.16991 1.08245 2.88374 2.27805C1.59756 3.47365 0.875 5.09524 0.875 6.78607V19.5367C0.8747 20.374 1.05189 21.2031 1.39644 21.9767C1.74099 22.7503 2.24616 23.4533 2.88306 24.0453C3.51997 24.6374 4.27614 25.107 5.10836 25.4273C5.94057 25.7476 6.83253 25.9123 7.73325 25.912H12.3054C14.1243 25.912 15.8688 25.2403 17.1549 24.0447C18.4411 22.8491 19.1637 21.2275 19.1637 19.5367V15.2865ZM7.73325 19.5367H12.3054V15.2865C12.3054 14.7229 12.5463 14.1823 12.975 13.7838C13.4037 13.3853 13.9852 13.1614 14.5915 13.1614H19.1637C19.77 13.1614 20.3514 13.3853 20.7802 13.7838C21.2089 14.1823 21.4497 14.7229 21.4497 15.2865H26.0219C26.0219 13.5956 25.2994 11.9741 24.0132 10.7785C22.727 9.58285 20.9826 8.91117 19.1637 8.91117H14.5915C12.7726 8.91117 11.0282 9.58285 9.74198 10.7785C8.45581 11.9741 7.73325 13.5956 7.73325 15.2865V19.5367ZM21.4497 19.5303H26.0219V23.7869H21.4497V19.5303ZM26.0219 28.0371H21.4497C21.4497 28.6007 21.2089 29.1412 20.7802 29.5398C20.3514 29.9383 19.77 30.1622 19.1637 30.1622H14.5915C13.9852 30.1622 13.4037 29.9383 12.975 29.5398C12.5463 29.1412 12.3054 28.6007 12.3054 28.0371H7.73325C7.73325 29.7279 8.45581 31.3495 9.74198 32.5451C11.0282 33.7407 12.7726 34.4124 14.5915 34.4124H19.1637C20.9826 34.4124 22.727 33.7407 24.0132 32.5451C25.2994 31.3495 26.0219 29.7279 26.0219 28.0371Z" fill="url(#paint0_linear_0_186)"/>
<defs>
<linearGradient id="paint0_linear_0_186" x1="28.7162" y1="17.1234" x2="-20.0808" y2="17.1234" gradientUnits="userSpaceOnUse">
<stop stop-color="#F08324"/>
<stop offset="1" stop-color="#AC3C09"/>
</linearGradient>
</defs>
</svg>
