<svg width="385" height="83" viewBox="0 0 385 83" fill="none" xmlns="http://www.w3.org/2000/svg">
<path d="M0.453 81H-0.546999V82H0.453V81ZM0.453 5.02999V4.02999H-0.546999V5.02999H0.453ZM15.968 5.02999H16.968V4.02999H15.968V5.02999ZM15.968 35.311H14.968V36.311H15.968V35.311ZM48.924 35.311V36.311H49.924V35.311H48.924ZM48.924 5.02999V4.02999H47.924V5.02999H48.924ZM64.439 5.02999H65.439V4.02999H64.439V5.02999ZM64.439 81V82H65.439V81H64.439ZM48.924 81H47.924V82H48.924V81ZM48.924 50.077H49.924V49.077H48.924V50.077ZM15.968 50.077V49.077H14.968V50.077H15.968ZM15.968 81V82H16.968V81H15.968ZM1.453 81L1.453 5.02999H-0.546999L-0.546999 81H1.453ZM0.453 6.02999H15.968V4.02999H0.453V6.02999ZM14.968 5.02999V35.311H16.968V5.02999H14.968ZM15.968 36.311H48.924V34.311H15.968V36.311ZM49.924 35.311V5.02999H47.924V35.311H49.924ZM48.924 6.02999H64.439V4.02999H48.924V6.02999ZM63.439 5.02999V81H65.439V5.02999H63.439ZM64.439 80H48.924V82H64.439V80ZM49.924 81V50.077H47.924V81H49.924ZM48.924 49.077H15.968V51.077H48.924V49.077ZM14.968 50.077V81H16.968V50.077H14.968ZM15.968 80H0.453V82H15.968V80ZM123.197 74.152L123.895 74.8684L123.9 74.8637L123.197 74.152ZM83.3931 74.152L82.6906 74.8637L82.6953 74.8683L83.3931 74.152ZM83.3931 34.455L84.0955 35.1667L83.3931 34.455ZM123.197 34.455L122.495 35.1667L123.197 34.455ZM112.711 64.522L111.985 63.8343L111.985 63.8348L112.711 64.522ZM112.711 44.085L111.976 44.7625L111.985 44.7725L111.994 44.7823L112.711 44.085ZM93.665 44.085L92.9391 43.3973L92.9386 43.3978L93.665 44.085ZM93.665 64.522L92.9295 65.1995L92.9388 65.2095L92.9483 65.2194L93.665 64.522ZM122.499 73.4357C117.196 78.6009 110.814 81.177 103.295 81.177V83.177C111.327 83.177 118.212 80.4031 123.895 74.8683L122.499 73.4357ZM103.295 81.177C95.7763 81.177 89.3938 78.6009 84.0908 73.4357L82.6953 74.8683C88.3776 80.4031 95.2632 83.177 103.295 83.177V81.177ZM84.0955 73.4403C78.7968 68.2104 76.154 61.8342 76.154 54.25H74.154C74.154 62.3591 77.004 69.251 82.6906 74.8637L84.0955 73.4403ZM76.154 54.25C76.154 46.7399 78.7948 40.3986 84.0955 35.1667L82.6906 33.7433C77.0059 39.3541 74.154 46.2094 74.154 54.25H76.154ZM84.0955 35.1667C89.3995 29.9316 95.7805 27.323 103.295 27.323V25.323C95.259 25.323 88.372 28.1357 82.6906 33.7433L84.0955 35.1667ZM103.295 27.323C110.81 27.323 117.191 29.9316 122.495 35.1667L123.9 33.7433C118.218 28.1357 111.331 25.323 103.295 25.323V27.323ZM122.495 35.1667C127.795 40.3986 130.436 46.7399 130.436 54.25H132.436C132.436 46.2094 129.584 39.3541 123.9 33.7433L122.495 35.1667ZM130.436 54.25C130.436 61.8342 127.793 68.2104 122.495 73.4403L123.9 74.8637C129.586 69.251 132.436 62.3591 132.436 54.25H130.436ZM103.295 69.481C107.338 69.481 110.744 68.0572 113.438 65.2092L111.985 63.8348C109.685 66.2655 106.813 67.481 103.295 67.481V69.481ZM113.437 65.2097C116.201 62.2926 117.563 58.6131 117.563 54.25H115.563C115.563 58.1615 114.357 61.3301 111.985 63.8343L113.437 65.2097ZM117.563 54.25C117.563 49.8872 116.2 46.2373 113.428 43.3876L111.994 44.7823C114.358 47.2113 115.563 50.3382 115.563 54.25H117.563ZM113.447 43.4075C110.755 40.4853 107.347 39.019 103.295 39.019V41.019C106.804 41.019 109.674 42.2633 111.976 44.7625L113.447 43.4075ZM103.295 39.019C99.1782 39.019 95.7026 40.4802 92.9391 43.3973L94.391 44.7727C96.7635 42.2684 99.7078 41.019 103.295 41.019V39.019ZM92.9386 43.3978C90.2416 46.2489 88.92 49.8953 88.92 54.25H90.92C90.92 50.33 92.0951 47.1998 94.3915 44.7722L92.9386 43.3978ZM88.92 54.25C88.92 58.6051 90.2415 62.2811 92.9295 65.1995L94.4006 63.8445C92.0952 61.3415 90.92 58.1695 90.92 54.25H88.92ZM92.9483 65.2194C95.7141 68.0619 99.187 69.481 103.295 69.481V67.481C99.6991 67.481 96.752 66.2607 94.3818 63.8246L92.9483 65.2194ZM142.007 81H141.007V82H142.007V81ZM142.007 0.749994V-0.250006H141.007V0.749994H142.007ZM156.666 0.749994H157.666V-0.250006H156.666V0.749994ZM156.666 81V82H157.666V81H156.666ZM143.007 81V0.749994H141.007V81H143.007ZM142.007 1.74999H156.666V-0.250006H142.007V1.74999ZM155.666 0.749994V81H157.666V0.749994H155.666ZM156.666 80H142.007V82H156.666V80ZM174.595 73.938L175.344 73.2761L174.595 73.938ZM174.595 34.562L175.344 35.2239L174.595 34.562ZM201.666 28.463L202.131 27.5781L201.666 28.463ZM207.872 33.492L207.068 34.0872L208.872 36.522V33.492H207.872ZM207.872 0.749994V-0.250006H206.872V0.749994H207.872ZM222.531 0.749994H223.531V-0.250006H222.531V0.749994ZM222.531 81V82H223.531V81H222.531ZM207.872 81H206.872V82H207.872V81ZM207.872 75.008H208.872V71.978L207.068 74.4128L207.872 75.008ZM201.666 80.037L202.131 80.9219L201.666 80.037ZM185.723 64.736L184.977 65.4028L184.982 65.4082L184.987 65.4135L185.723 64.736ZM205.304 64.736L204.568 64.0585L204.563 64.0638L204.558 64.0692L205.304 64.736ZM205.304 43.764L204.558 44.4308L204.563 44.4362L204.568 44.4415L205.304 43.764ZM185.723 43.764L184.987 43.0865L184.982 43.0918L184.977 43.0972L185.723 43.764ZM192.464 81.177C185.701 81.177 180.013 78.563 175.344 73.2761L173.845 74.5999C178.877 80.2983 185.103 83.177 192.464 83.177V81.177ZM175.344 73.2761C170.662 67.9743 168.319 61.65 168.319 54.25H166.319C166.319 62.1154 168.826 68.9164 173.845 74.5999L175.344 73.2761ZM168.319 54.25C168.319 46.85 170.662 40.5257 175.344 35.2239L173.845 33.9001C168.826 39.5836 166.319 46.3846 166.319 54.25H168.319ZM175.344 35.2239C180.013 29.937 185.701 27.323 192.464 27.323V25.323C185.103 25.323 178.877 28.2017 173.845 33.9001L175.344 35.2239ZM192.464 27.323C195.745 27.323 198.649 28.0054 201.2 29.3479L202.131 27.5781C199.261 26.0673 196.031 25.323 192.464 25.323V27.323ZM201.2 29.3479C203.813 30.7234 205.752 32.3107 207.068 34.0872L208.675 32.8968C207.138 30.8213 204.939 29.0559 202.131 27.5781L201.2 29.3479ZM208.872 33.492V0.749994H206.872V33.492H208.872ZM207.872 1.74999H222.531V-0.250006H207.872V1.74999ZM221.531 0.749994V81H223.531V0.749994H221.531ZM222.531 80H207.872V82H222.531V80ZM208.872 81V75.008H206.872V81H208.872ZM207.068 74.4128C205.752 76.1893 203.813 77.7766 201.2 79.1521L202.131 80.9219C204.939 79.4441 207.138 77.6787 208.675 75.6032L207.068 74.4128ZM201.2 79.1521C198.649 80.4946 195.745 81.177 192.464 81.177V83.177C196.031 83.177 199.261 82.4327 202.131 80.9219L201.2 79.1521ZM184.987 65.4135C187.694 68.3522 191.253 69.802 195.567 69.802V67.802C191.748 67.802 188.745 66.5411 186.458 64.0585L184.987 65.4135ZM195.567 69.802C199.88 69.802 203.41 68.3518 206.049 65.4028L204.558 64.0692C202.346 66.5415 199.385 67.802 195.567 67.802V69.802ZM206.039 65.4135C208.733 62.4886 210.049 58.7378 210.049 54.25H208.049C208.049 58.3222 206.868 61.562 204.568 64.0585L206.039 65.4135ZM210.049 54.25C210.049 49.7622 208.733 46.0114 206.039 43.0865L204.568 44.4415C206.868 46.938 208.049 50.1778 208.049 54.25H210.049ZM206.049 43.0972C203.41 40.1482 199.88 38.698 195.567 38.698V40.698C199.385 40.698 202.346 41.9585 204.558 44.4308L206.049 43.0972ZM195.567 38.698C191.253 38.698 187.694 40.1478 184.987 43.0865L186.458 44.4415C188.745 41.9589 191.748 40.698 195.567 40.698V38.698ZM184.977 43.0972C182.36 46.0229 181.085 49.77 181.085 54.25H183.085C183.085 50.17 184.235 46.9265 186.468 44.4308L184.977 43.0972ZM181.085 54.25C181.085 58.73 182.36 62.4771 184.977 65.4028L186.468 64.0692C184.235 61.5735 183.085 58.33 183.085 54.25H181.085ZM241.169 74.259L240.457 74.9613L240.462 74.9661L241.169 74.259ZM241.276 34.241L240.573 33.5291L240.569 33.5339L241.276 34.241ZM281.936 34.776L281.215 35.4693L281.22 35.4739L281.936 34.776ZM289.426 57.674V58.674H290.383L290.425 57.7181L289.426 57.674ZM247.696 57.674V56.674H246.607L246.699 57.7588L247.696 57.674ZM251.869 66.127L251.194 66.865L251.2 66.8704L251.206 66.8756L251.869 66.127ZM269.096 67.946L269.543 68.8405L269.555 68.8342L269.096 67.946ZM273.483 63.559V62.559H272.843L272.575 63.1399L273.483 63.559ZM288.784 63.559L289.745 63.8337L290.109 62.559H288.784V63.559ZM278.94 77.041L279.505 77.8658L279.513 77.8602L278.94 77.041ZM252.618 40.875L253.23 41.6657L253.233 41.663L252.618 40.875ZM248.231 48.044L247.257 47.8175L246.971 49.044H248.231V48.044ZM273.376 48.044V49.044H274.637L274.349 47.8161L273.376 48.044ZM268.668 40.661L268.084 41.473L268.098 41.4833L268.113 41.493L268.668 40.661ZM261.392 81.177C253.425 81.177 246.948 78.6236 241.876 73.5519L240.462 74.9661C245.947 80.4518 252.952 83.177 261.392 83.177V81.177ZM241.881 73.5567C236.877 68.4841 234.358 62.04 234.358 54.143H232.358C232.358 62.51 235.046 69.4765 240.457 74.9613L241.881 73.5567ZM234.358 54.143C234.358 46.3983 236.906 40.0251 241.983 34.9481L240.569 33.5339C235.088 39.0142 232.358 45.9091 232.358 54.143H234.358ZM241.978 34.9528C247.125 29.8748 253.606 27.323 261.499 27.323V25.323C253.128 25.323 246.127 28.0498 240.573 33.5292L241.978 34.9528ZM261.499 27.323C269.445 27.323 275.992 30.0404 281.215 35.4693L282.656 34.0827C277.036 28.2409 269.959 25.323 261.499 25.323V27.323ZM281.22 35.4739C286.402 40.793 288.846 48.1308 288.427 57.6299L290.425 57.7181C290.862 47.8145 288.312 39.887 282.652 34.0781L281.22 35.4739ZM289.426 56.674H247.696V58.674H289.426V56.674ZM246.699 57.7588C247.006 61.3634 248.513 64.4138 251.194 66.865L252.543 65.389C250.231 63.2749 248.956 60.6899 248.692 57.5892L246.699 57.7588ZM251.206 66.8756C253.935 69.2931 257.621 70.444 262.141 70.444V68.444C257.958 68.444 254.796 67.3836 252.532 65.3784L251.206 66.8756ZM262.141 70.444C264.907 70.444 267.384 69.9201 269.543 68.8404L268.649 67.0516C266.813 67.9693 264.653 68.444 262.141 68.444V70.444ZM269.555 68.8342C271.792 67.6771 273.429 66.0624 274.391 63.9781L272.575 63.1399C271.825 64.7649 270.536 66.0749 268.636 67.0578L269.555 68.8342ZM273.483 64.559H288.784V62.559H273.483V64.559ZM287.822 63.2843C286.32 68.5409 283.185 72.8486 278.366 76.2218L279.513 77.8602C284.681 74.2428 288.108 69.5624 289.745 63.8337L287.822 63.2843ZM278.374 76.2163C273.565 79.5139 267.918 81.177 261.392 81.177V83.177C268.276 83.177 274.328 81.4161 279.505 77.8657L278.374 76.2163ZM261.071 37.2C257.532 37.2 254.487 38.1453 252.002 40.087L253.233 41.663C255.313 40.0381 257.904 39.2 261.071 39.2V37.2ZM252.006 40.0843C249.589 41.9548 248.015 44.556 247.257 47.8175L249.205 48.2705C249.873 45.3973 251.223 43.2191 253.23 41.6657L252.006 40.0843ZM248.231 49.044H273.376V47.044H248.231V49.044ZM274.349 47.8161C273.52 44.2728 271.832 41.5684 269.222 39.8289L268.113 41.493C270.212 42.8923 271.662 45.1099 272.402 48.2719L274.349 47.8161ZM269.251 39.849C266.801 38.0875 264.065 37.2 261.071 37.2V39.2C263.641 39.2 265.97 39.9532 268.084 41.473L269.251 39.849ZM300.104 81H299.104V82H300.104V81ZM300.104 27.5V26.5H299.104V27.5H300.104ZM314.763 27.5H315.763V26.5H314.763V27.5ZM314.763 36.06H313.763L315.706 36.3915L314.763 36.06ZM319.792 29.533L320.369 30.35L320.373 30.3467L319.792 29.533ZM332.953 27.5H333.953V26.756L333.24 26.5422L332.953 27.5ZM332.953 42.373L332.637 43.3217L333.953 43.7604V42.373H332.953ZM317.866 45.048L317.098 44.4078L317.096 44.41L317.866 45.048ZM314.763 81V82H315.763V81H314.763ZM301.104 81V27.5H299.104V81H301.104ZM300.104 28.5H314.763V26.5H300.104V28.5ZM313.763 27.5V36.06H315.763V27.5H313.763ZM315.706 36.3915C316.561 33.9605 318.102 31.9499 320.369 30.35L319.215 28.716C316.631 30.5401 314.82 32.8808 313.82 35.7285L315.706 36.3915ZM320.373 30.3467C322.705 28.6814 325.249 27.858 328.031 27.858V25.858C324.821 25.858 321.873 26.8179 319.211 28.7193L320.373 30.3467ZM328.031 27.858C329.811 27.858 331.352 28.0637 332.666 28.4578L333.24 26.5422C331.701 26.0803 329.96 25.858 328.031 25.858V27.858ZM331.953 27.5V42.373H333.953V27.5H331.953ZM333.269 41.4243C330.833 40.6122 328.514 40.196 326.319 40.196V42.196C328.261 42.196 330.365 42.5644 332.637 43.3217L333.269 41.4243ZM326.319 40.196C322.542 40.196 319.438 41.6001 317.098 44.4078L318.634 45.6882C320.574 43.3599 323.105 42.196 326.319 42.196V40.196ZM317.096 44.41C314.832 47.1419 313.763 50.856 313.763 55.427H315.763C315.763 51.1527 316.762 47.9475 318.636 45.686L317.096 44.41ZM313.763 55.427V81H315.763V55.427H313.763ZM314.763 80H300.104V82H314.763V80ZM345.016 77.041L345.622 76.2456L345.016 77.041ZM337.847 63.987V62.987H336.792L336.849 64.041L337.847 63.987ZM353.148 63.987L354.141 63.863L354.031 62.987H353.148V63.987ZM356.144 69.23L355.566 70.046L355.578 70.0542L355.59 70.062L356.144 69.23ZM367.807 63.452L367.19 64.2383L367.22 64.2624L367.253 64.284L367.807 63.452ZM362.671 61.312L362.927 60.3453L362.919 60.3431L362.671 61.312ZM352.613 58.744L352.357 59.7105L352.366 59.7129L352.613 58.744ZM342.341 52.645L341.544 53.2481L341.552 53.259L341.561 53.2697L342.341 52.645ZM344.802 30.817L345.407 31.6134L345.409 31.6118L344.802 30.817ZM375.511 30.924L374.902 31.7172L374.911 31.724L375.511 30.924ZM382.145 43.229V44.229H383.231L383.142 43.1471L382.145 43.229ZM367.379 43.229L366.395 43.4028L366.54 44.229H367.379V43.229ZM355.716 38.842L355.186 37.994L355.716 38.842ZM360.103 46.76L360.367 45.7952L360.346 45.7897L360.326 45.785L360.103 46.76ZM369.519 49.328L369.256 50.2928L369.268 50.296L369.28 50.2989L369.519 49.328ZM380.861 55.427L380.098 56.073L380.106 56.0827L380.861 55.427ZM378.079 77.79L378.657 78.6066L378.659 78.6047L378.079 77.79ZM362.029 81.177C355.353 81.177 349.908 79.5106 345.622 76.2456L344.41 77.8364C349.113 81.4194 355.01 83.177 362.029 83.177V81.177ZM345.622 76.2456C341.343 72.9853 339.114 68.8968 338.846 63.933L336.849 64.041C337.151 69.6345 339.701 74.2487 344.41 77.8364L345.622 76.2456ZM337.847 64.987H353.148V62.987H337.847V64.987ZM352.156 64.111C352.473 66.6423 353.602 68.6544 355.566 70.046L356.722 68.414C355.263 67.3803 354.395 65.897 354.141 63.863L352.156 64.111ZM355.59 70.062C357.498 71.3344 359.806 71.942 362.457 71.942V69.942C360.116 69.942 358.215 69.4083 356.699 68.3979L355.59 70.062ZM362.457 71.942C364.846 71.942 366.806 71.5804 368.198 70.7237C369.67 69.8179 370.412 68.4156 370.412 66.662H368.412C368.412 67.7617 367.996 68.4994 367.15 69.0203C366.223 69.5903 364.706 69.942 362.457 69.942V71.942ZM370.412 66.662C370.412 64.944 369.744 63.5414 368.362 62.6199L367.253 64.284C368.01 64.7892 368.412 65.5266 368.412 66.662H370.412ZM368.425 62.6657C367.259 61.7494 365.381 60.9948 362.927 60.3453L362.416 62.2787C364.813 62.9132 366.358 63.5853 367.19 64.2383L368.425 62.6657ZM362.919 60.3431L352.861 57.7751L352.366 59.7129L362.424 62.2809L362.919 60.3431ZM352.87 57.7775C348.451 56.6037 345.237 54.6634 343.122 52.0203L341.561 53.2697C344.011 56.3332 347.645 58.459 352.357 59.7105L352.87 57.7775ZM343.139 52.0419C341.073 49.3098 340.024 46.0323 340.024 42.159H338.024C338.024 46.4177 339.187 50.1309 341.544 53.2481L343.139 52.0419ZM340.024 42.159C340.024 37.8504 341.792 34.3586 345.407 31.6134L344.198 30.0206C340.109 33.1248 338.024 37.1942 338.024 42.159H340.024ZM345.409 31.6118C349.109 28.7868 354.116 27.323 360.531 27.323V25.323C353.821 25.323 348.343 26.8552 344.195 30.0222L345.409 31.6118ZM360.531 27.323C366.346 27.323 371.114 28.8081 374.902 31.7171L376.12 30.1308C371.92 26.9052 366.7 25.323 360.531 25.323V27.323ZM374.911 31.724C378.665 34.5395 380.743 38.3736 381.149 43.3109L383.142 43.1471C382.692 37.6697 380.347 33.3005 376.111 30.124L374.911 31.724ZM382.145 42.229H367.379V44.229H382.145V42.229ZM368.364 43.0552C368.011 41.0529 367.162 39.4411 365.744 38.345C364.337 37.2582 362.492 36.772 360.317 36.772V38.772C362.209 38.772 363.573 39.1953 364.521 39.9275C365.456 40.6504 366.106 41.7671 366.395 43.4028L368.364 43.0552ZM360.317 36.772C358.281 36.772 356.541 37.1473 355.186 37.994L356.246 39.69C357.174 39.11 358.502 38.772 360.317 38.772V36.772ZM355.186 37.994C353.77 38.8794 353.004 40.1896 353.004 41.838H355.004C355.004 40.9184 355.38 40.2313 356.246 39.69L355.186 37.994ZM353.004 41.838C353.004 43.3531 353.679 44.6257 354.901 45.6122C356.086 46.5685 357.779 47.2554 359.881 47.735L360.326 45.785C358.362 45.3372 357.005 44.7401 356.157 44.0558C355.347 43.4016 355.004 42.6769 355.004 41.838H353.004ZM359.84 47.7248L369.256 50.2928L369.783 48.3632L360.367 45.7952L359.84 47.7248ZM369.28 50.2989C374.375 51.5552 377.931 53.5115 380.098 56.0729L381.625 54.7811C379.084 51.7785 375.079 49.6688 369.759 48.3571L369.28 50.2989ZM380.106 56.0827C382.273 58.5778 383.392 61.8253 383.392 65.913H385.392C385.392 61.4407 384.158 57.6975 381.616 54.7713L380.106 56.0827ZM383.392 65.913C383.392 70.493 381.46 74.156 377.499 76.9753L378.659 78.6047C383.116 75.432 385.392 71.177 385.392 65.913H383.392ZM377.502 76.9734C373.577 79.7479 368.446 81.177 362.029 81.177V83.177C368.738 83.177 374.307 81.6814 378.657 78.6066L377.502 76.9734Z" fill="white"/>
</svg>
