<svg width="378" height="83" viewBox="0 0 378 83" fill="none" xmlns="http://www.w3.org/2000/svg">
<path d="M0.453 5.02999V4.02999H-0.546999V5.02999H0.453ZM14.577 5.02999L15.3852 4.44107L15.0856 4.02999H14.577V5.02999ZM39.294 38.949L38.4858 39.5379L39.294 40.647L40.1022 39.5379L39.294 38.949ZM64.011 5.02999V4.02999H63.5024L63.2028 4.44107L64.011 5.02999ZM78.135 5.02999H79.135V4.02999H78.135V5.02999ZM78.135 81V82H79.135V81H78.135ZM62.62 81H61.62V82H62.62V81ZM62.62 31.566H63.62V28.497L61.812 30.9769L62.62 31.566ZM39.294 63.559L38.486 64.1481L39.294 65.2564L40.102 64.1481L39.294 63.559ZM15.968 31.566L16.776 30.9769L14.968 28.497V31.566H15.968ZM15.968 81V82H16.968V81H15.968ZM0.453 81H-0.546999V82H0.453V81ZM0.453 6.02999H14.577V4.02999H0.453V6.02999ZM13.7688 5.61893L38.4858 39.5379L40.1022 38.3601L15.3852 4.44107L13.7688 5.61893ZM40.1022 39.5379L64.8192 5.61893L63.2028 4.44107L38.4858 38.3601L40.1022 39.5379ZM64.011 6.02999H78.135V4.02999H64.011V6.02999ZM77.135 5.02999V81H79.135V5.02999H77.135ZM78.135 80H62.62V82H78.135V80ZM63.62 81V31.566H61.62V81H63.62ZM61.812 30.9769L38.486 62.9699L40.102 64.1481L63.428 32.1551L61.812 30.9769ZM40.102 62.9699L16.776 30.9769L15.16 32.1551L38.486 64.1481L40.102 62.9699ZM14.968 31.566V81H16.968V31.566H14.968ZM15.968 80H0.453V82H15.968V80ZM1.453 81L1.453 5.02999H-0.546999L-0.546999 81H1.453ZM93.645 16.051L92.9379 16.7581L92.9448 16.765L92.9519 16.7718L93.645 16.051ZM93.645 2.89L94.3381 3.61083L94.3452 3.60404L94.3521 3.59711L93.645 2.89ZM106.806 2.89L106.085 3.58311L106.099 3.59724L106.113 3.61083L106.806 2.89ZM106.806 16.051L106.099 15.3439L106.806 16.051ZM92.896 81H91.896V82H92.896V81ZM92.896 27.5V26.5H91.896V27.5H92.896ZM107.555 27.5H108.555V26.5H107.555V27.5ZM107.555 81V82H108.555V81H107.555ZM100.172 17.726C97.9424 17.726 96.0128 16.9405 94.3381 15.3302L92.9519 16.7718C94.9865 18.7282 97.4082 19.726 100.172 19.726V17.726ZM94.3521 15.3439C92.6805 13.6723 91.863 11.7135 91.863 9.417H89.863C89.863 12.2565 90.9002 14.7204 92.9379 16.7581L94.3521 15.3439ZM91.863 9.417C91.863 7.1216 92.6791 5.20604 94.3381 3.61083L92.9519 2.16916C90.9016 4.14062 89.863 6.57639 89.863 9.417H91.863ZM94.3521 3.59711C96.0298 1.91942 97.9551 1.108 100.172 1.108V-0.892004C97.3955 -0.892004 94.9695 0.151237 92.9379 2.18289L94.3521 3.59711ZM100.172 1.108C102.547 1.108 104.496 1.93015 106.085 3.58311L107.527 2.19689C105.55 0.140514 103.075 -0.892004 100.172 -0.892004V1.108ZM106.113 3.61083C107.772 5.20604 108.588 7.1216 108.588 9.417H110.588C110.588 6.57639 109.549 4.14062 107.499 2.16916L106.113 3.61083ZM108.588 9.417C108.588 11.7135 107.771 13.6723 106.099 15.3439L107.513 16.7581C109.551 14.7204 110.588 12.2565 110.588 9.417H108.588ZM106.099 15.3439C104.513 16.9302 102.56 17.726 100.172 17.726V19.726C103.063 19.726 105.533 18.7385 107.513 16.7581L106.099 15.3439ZM93.896 81V27.5H91.896V81H93.896ZM92.896 28.5H107.555V26.5H92.896V28.5ZM106.555 27.5V81H108.555V27.5H106.555ZM107.555 80H92.896V82H107.555V80ZM121.631 81H120.631V82H121.631V81ZM121.631 27.5V26.5H120.631V27.5H121.631ZM136.29 27.5H137.29V26.5H136.29V27.5ZM136.29 33.599H135.29V36.862L137.119 34.1593L136.29 33.599ZM166.678 32.743L165.916 33.3906L165.922 33.3975L165.928 33.4042L166.678 32.743ZM172.242 81V82H173.242V81H172.242ZM157.583 81H156.583V82H157.583V81ZM155.122 43.015L154.319 43.6108L154.324 43.6172L154.329 43.6234L155.122 43.015ZM139.5 43.55L138.743 42.8975L138.737 42.9036L138.732 42.9098L139.5 43.55ZM136.29 81V82H137.29V81H136.29ZM122.631 81V27.5H120.631V81H122.631ZM121.631 28.5H136.29V26.5H121.631V28.5ZM135.29 27.5V33.599H137.29V27.5H135.29ZM137.119 34.1593C140.178 29.6365 144.935 27.323 151.591 27.323V25.323C144.409 25.323 138.965 27.8602 135.462 33.0387L137.119 34.1593ZM151.591 27.323C157.765 27.323 162.497 29.3675 165.916 33.3906L167.44 32.0953C163.584 27.5585 158.258 25.323 151.591 25.323V27.323ZM165.928 33.4042C169.438 37.3866 171.242 42.7653 171.242 49.649H173.242C173.242 42.4087 171.337 36.5167 167.429 32.0818L165.928 33.4042ZM171.242 49.649V81H173.242V49.649H171.242ZM172.242 80H157.583V82H172.242V80ZM158.583 81V52.11H156.583V81H158.583ZM158.583 52.11C158.583 48.0632 157.739 44.7848 155.916 42.4066L154.329 43.6234C155.787 45.5252 156.583 48.3101 156.583 52.11H158.583ZM155.925 42.4192C154.078 39.9287 151.448 38.698 148.167 38.698V40.698C150.879 40.698 152.886 41.6787 154.319 43.6108L155.925 42.4192ZM148.167 38.698C144.327 38.698 141.155 40.096 138.743 42.8975L140.258 44.2025C142.268 41.868 144.874 40.698 148.167 40.698V38.698ZM138.732 42.9098C136.384 45.7277 135.29 49.7761 135.29 54.892H137.29C137.29 50.0212 138.337 46.5083 140.269 44.1902L138.732 42.9098ZM135.29 54.892V81H137.29V54.892H135.29ZM136.29 80H121.631V82H136.29V80ZM196.186 76.72L195.523 77.4682L195.53 77.4748L195.538 77.4812L196.186 76.72ZM190.515 40.34H191.515V39.34H190.515V40.34ZM179.708 40.34H178.708V41.34H179.708V40.34ZM179.708 27.5V26.5H178.708V27.5H179.708ZM190.515 27.5V28.5H191.515V27.5H190.515ZM190.515 12.627V11.627H189.515V12.627H190.515ZM205.174 12.627H206.174V11.627H205.174V12.627ZM205.174 27.5H204.174V28.5H205.174V27.5ZM220.261 27.5H221.261V26.5H220.261V27.5ZM220.261 40.34V41.34H221.261V40.34H220.261ZM205.174 40.34V39.34H204.174V40.34H205.174ZM207.314 66.448L206.607 67.1551L206.616 67.1642L206.625 67.173L207.314 66.448ZM220.261 67.518H221.261V66.075L219.91 66.5817L220.261 67.518ZM220.261 80.465L220.553 81.4213L221.261 81.2051V80.465H220.261ZM210.952 80.642C205.152 80.642 200.473 79.0586 196.835 75.9588L195.538 77.4812C199.603 80.9441 204.768 82.642 210.952 82.642V80.642ZM196.85 75.9718C193.333 72.8535 191.515 68.3411 191.515 62.275H189.515C189.515 68.7636 191.478 73.8812 195.523 77.4682L196.85 75.9718ZM191.515 62.275V40.34H189.515V62.275H191.515ZM190.515 39.34H179.708V41.34H190.515V39.34ZM180.708 40.34V27.5H178.708V40.34H180.708ZM179.708 28.5H190.515V26.5H179.708V28.5ZM191.515 27.5V12.627H189.515V27.5H191.515ZM190.515 13.627H205.174V11.627H190.515V13.627ZM204.174 12.627V27.5H206.174V12.627H204.174ZM205.174 28.5H220.261V26.5H205.174V28.5ZM219.261 27.5V40.34H221.261V27.5H219.261ZM220.261 39.34H205.174V41.34H220.261V39.34ZM204.174 40.34V59.386H206.174V40.34H204.174ZM204.174 59.386C204.174 62.7738 204.904 65.4525 206.607 67.1551L208.021 65.7409C206.87 64.5901 206.174 62.5609 206.174 59.386H204.174ZM206.625 67.173C208.325 68.7879 210.956 69.481 214.269 69.481V67.481C211.162 67.481 209.156 66.8188 208.003 65.723L206.625 67.173ZM214.269 69.481C216.643 69.481 218.764 69.1474 220.612 68.4543L219.91 66.5817C218.334 67.1726 216.46 67.481 214.269 67.481V69.481ZM219.261 67.518V80.465H221.261V67.518H219.261ZM219.969 79.5087C217.522 80.2562 214.524 80.642 210.952 80.642V82.642C214.657 82.642 217.864 82.2432 220.553 81.4213L219.969 79.5087ZM234.377 74.259L233.665 74.9613L233.67 74.9661L234.377 74.259ZM234.484 34.241L233.781 33.5291L233.777 33.5339L234.484 34.241ZM275.144 34.776L274.423 35.4693L274.428 35.4739L275.144 34.776ZM282.634 57.674V58.674H283.591L283.633 57.7181L282.634 57.674ZM240.904 57.674V56.674H239.815L239.907 57.7588L240.904 57.674ZM245.077 66.127L244.402 66.865L244.408 66.8704L244.414 66.8756L245.077 66.127ZM262.304 67.946L262.751 68.8405L262.763 68.8342L262.304 67.946ZM266.691 63.559V62.559H266.051L265.783 63.1399L266.691 63.559ZM281.992 63.559L282.953 63.8337L283.317 62.559H281.992V63.559ZM272.148 77.041L272.713 77.8658L272.721 77.8602L272.148 77.041ZM245.826 40.875L246.438 41.6657L246.441 41.663L245.826 40.875ZM241.439 48.044L240.465 47.8175L240.179 49.044H241.439V48.044ZM266.584 48.044V49.044H267.845L267.557 47.8161L266.584 48.044ZM261.876 40.661L261.292 41.473L261.306 41.4833L261.321 41.493L261.876 40.661ZM254.6 81.177C246.633 81.177 240.156 78.6236 235.084 73.5519L233.67 74.9661C239.155 80.4518 246.16 83.177 254.6 83.177V81.177ZM235.089 73.5567C230.085 68.4841 227.566 62.04 227.566 54.143H225.566C225.566 62.51 228.254 69.4765 233.665 74.9613L235.089 73.5567ZM227.566 54.143C227.566 46.3983 230.114 40.0251 235.191 34.9481L233.777 33.5339C228.296 39.0142 225.566 45.9091 225.566 54.143H227.566ZM235.186 34.9528C240.333 29.8748 246.814 27.323 254.707 27.323V25.323C246.336 25.323 239.335 28.0498 233.781 33.5292L235.186 34.9528ZM254.707 27.323C262.653 27.323 269.2 30.0404 274.423 35.4693L275.864 34.0827C270.244 28.2409 263.167 25.323 254.707 25.323V27.323ZM274.428 35.4739C279.61 40.793 282.054 48.1308 281.635 57.6299L283.633 57.7181C284.07 47.8145 281.52 39.887 275.86 34.0781L274.428 35.4739ZM282.634 56.674H240.904V58.674H282.634V56.674ZM239.907 57.7588C240.214 61.3634 241.721 64.4138 244.402 66.865L245.752 65.389C243.439 63.2749 242.164 60.6899 241.9 57.5892L239.907 57.7588ZM244.414 66.8756C247.143 69.2931 250.829 70.444 255.349 70.444V68.444C251.166 68.444 248.004 67.3836 245.74 65.3784L244.414 66.8756ZM255.349 70.444C258.115 70.444 260.592 69.9201 262.751 68.8404L261.857 67.0516C260.021 67.9693 257.861 68.444 255.349 68.444V70.444ZM262.763 68.8342C265 67.6771 266.637 66.0624 267.599 63.9781L265.783 63.1399C265.033 64.7649 263.745 66.0749 261.844 67.0578L262.763 68.8342ZM266.691 64.559H281.992V62.559H266.691V64.559ZM281.03 63.2843C279.528 68.5409 276.393 72.8486 271.574 76.2218L272.721 77.8602C277.889 74.2428 281.316 69.5624 282.953 63.8337L281.03 63.2843ZM271.582 76.2163C266.773 79.5139 261.126 81.177 254.6 81.177V83.177C261.484 83.177 267.536 81.4161 272.713 77.8657L271.582 76.2163ZM254.279 37.2C250.74 37.2 247.695 38.1453 245.21 40.087L246.441 41.663C248.521 40.0381 251.112 39.2 254.279 39.2V37.2ZM245.214 40.0843C242.797 41.9548 241.223 44.556 240.465 47.8175L242.413 48.2705C243.081 45.3973 244.431 43.2191 246.438 41.6657L245.214 40.0843ZM241.439 49.044H266.584V47.044H241.439V49.044ZM267.557 47.8161C266.728 44.2728 265.04 41.5684 262.43 39.8289L261.321 41.493C263.42 42.8923 264.87 45.1099 265.61 48.2719L267.557 47.8161ZM262.459 39.849C260.009 38.0875 257.273 37.2 254.279 37.2V39.2C256.849 39.2 259.178 39.9532 261.292 41.473L262.459 39.849ZM293.312 81H292.312V82H293.312V81ZM293.312 27.5V26.5H292.312V27.5H293.312ZM307.971 27.5H308.971V26.5H307.971V27.5ZM307.971 36.06H306.971L308.914 36.3915L307.971 36.06ZM313 29.533L313.577 30.35L313.581 30.3467L313 29.533ZM326.161 27.5H327.161V26.756L326.448 26.5422L326.161 27.5ZM326.161 42.373L325.845 43.3217L327.161 43.7604V42.373H326.161ZM311.074 45.048L310.306 44.4078L310.304 44.41L311.074 45.048ZM307.971 81V82H308.971V81H307.971ZM294.312 81V27.5H292.312V81H294.312ZM293.312 28.5H307.971V26.5H293.312V28.5ZM306.971 27.5V36.06H308.971V27.5H306.971ZM308.914 36.3915C309.769 33.9605 311.31 31.9499 313.577 30.35L312.423 28.716C309.839 30.5401 308.028 32.8808 307.028 35.7285L308.914 36.3915ZM313.581 30.3467C315.913 28.6814 318.457 27.858 321.239 27.858V25.858C318.029 25.858 315.081 26.8179 312.419 28.7193L313.581 30.3467ZM321.239 27.858C323.019 27.858 324.56 28.0637 325.874 28.4578L326.448 26.5422C324.909 26.0803 323.168 25.858 321.239 25.858V27.858ZM325.161 27.5V42.373H327.161V27.5H325.161ZM326.477 41.4243C324.041 40.6122 321.722 40.196 319.527 40.196V42.196C321.469 42.196 323.573 42.5644 325.845 43.3217L326.477 41.4243ZM319.527 40.196C315.75 40.196 312.646 41.6001 310.306 44.4078L311.842 45.6882C313.783 43.3599 316.313 42.196 319.527 42.196V40.196ZM310.304 44.41C308.04 47.1419 306.971 50.856 306.971 55.427H308.971C308.971 51.1527 309.97 47.9475 311.844 45.686L310.304 44.41ZM306.971 55.427V81H308.971V55.427H306.971ZM307.971 80H293.312V82H307.971V80ZM338.224 77.041L338.83 76.2456L338.224 77.041ZM331.055 63.987V62.987H330L330.057 64.041L331.055 63.987ZM346.356 63.987L347.349 63.863L347.239 62.987H346.356V63.987ZM349.352 69.23L348.774 70.046L348.786 70.0542L348.798 70.062L349.352 69.23ZM361.015 63.452L360.398 64.2383L360.428 64.2624L360.461 64.284L361.015 63.452ZM355.879 61.312L356.135 60.3453L356.127 60.3431L355.879 61.312ZM345.821 58.744L345.565 59.7105L345.574 59.7129L345.821 58.744ZM335.549 52.645L334.752 53.2481L334.76 53.259L334.769 53.2697L335.549 52.645ZM338.01 30.817L338.615 31.6134L338.617 31.6118L338.01 30.817ZM368.719 30.924L368.11 31.7172L368.119 31.724L368.719 30.924ZM375.353 43.229V44.229H376.439L376.35 43.1471L375.353 43.229ZM360.587 43.229L359.603 43.4028L359.748 44.229H360.587V43.229ZM348.924 38.842L348.394 37.994L348.924 38.842ZM353.311 46.76L353.575 45.7952L353.554 45.7897L353.534 45.785L353.311 46.76ZM362.727 49.328L362.464 50.2928L362.476 50.296L362.488 50.2989L362.727 49.328ZM374.069 55.427L373.306 56.073L373.314 56.0827L374.069 55.427ZM371.287 77.79L371.865 78.6066L371.867 78.6047L371.287 77.79ZM355.237 81.177C348.561 81.177 343.116 79.5106 338.83 76.2456L337.618 77.8364C342.321 81.4194 348.218 83.177 355.237 83.177V81.177ZM338.83 76.2456C334.551 72.9853 332.322 68.8968 332.054 63.933L330.057 64.041C330.359 69.6345 332.909 74.2487 337.618 77.8364L338.83 76.2456ZM331.055 64.987H346.356V62.987H331.055V64.987ZM345.364 64.111C345.681 66.6423 346.81 68.6544 348.774 70.046L349.93 68.414C348.471 67.3803 347.603 65.897 347.349 63.863L345.364 64.111ZM348.798 70.062C350.706 71.3344 353.014 71.942 355.665 71.942V69.942C353.324 69.942 351.423 69.4083 349.907 68.3979L348.798 70.062ZM355.665 71.942C358.054 71.942 360.014 71.5804 361.406 70.7237C362.878 69.8179 363.62 68.4156 363.62 66.662H361.62C361.62 67.7617 361.204 68.4994 360.358 69.0203C359.431 69.5903 357.914 69.942 355.665 69.942V71.942ZM363.62 66.662C363.62 64.944 362.952 63.5414 361.57 62.6199L360.461 64.284C361.219 64.7892 361.62 65.5266 361.62 66.662H363.62ZM361.633 62.6657C360.467 61.7494 358.589 60.9948 356.135 60.3453L355.624 62.2787C358.021 62.9132 359.566 63.5853 360.398 64.2383L361.633 62.6657ZM356.127 60.3431L346.069 57.7751L345.574 59.7129L355.632 62.2809L356.127 60.3431ZM346.078 57.7775C341.659 56.6037 338.445 54.6634 336.33 52.0203L334.769 53.2697C337.219 56.3332 340.853 58.459 345.565 59.7105L346.078 57.7775ZM336.347 52.0419C334.281 49.3098 333.232 46.0323 333.232 42.159H331.232C331.232 46.4177 332.395 50.1309 334.752 53.2481L336.347 52.0419ZM333.232 42.159C333.232 37.8504 335 34.3586 338.615 31.6134L337.406 30.0206C333.317 33.1248 331.232 37.1942 331.232 42.159H333.232ZM338.617 31.6118C342.317 28.7868 347.324 27.323 353.739 27.323V25.323C347.029 25.323 341.551 26.8552 337.404 30.0222L338.617 31.6118ZM353.739 27.323C359.554 27.323 364.322 28.8081 368.11 31.7171L369.328 30.1308C365.128 26.9052 359.908 25.323 353.739 25.323V27.323ZM368.119 31.724C371.873 34.5395 373.951 38.3736 374.357 43.3109L376.35 43.1471C375.9 37.6697 373.555 33.3005 369.319 30.124L368.119 31.724ZM375.353 42.229H360.587V44.229H375.353V42.229ZM361.572 43.0552C361.219 41.0529 360.37 39.4411 358.952 38.345C357.545 37.2582 355.7 36.772 353.525 36.772V38.772C355.417 38.772 356.781 39.1953 357.729 39.9275C358.664 40.6504 359.314 41.7671 359.603 43.4028L361.572 43.0552ZM353.525 36.772C351.489 36.772 349.749 37.1473 348.394 37.994L349.454 39.69C350.382 39.11 351.71 38.772 353.525 38.772V36.772ZM348.394 37.994C346.978 38.8794 346.212 40.1896 346.212 41.838H348.212C348.212 40.9184 348.588 40.2313 349.454 39.69L348.394 37.994ZM346.212 41.838C346.212 43.3531 346.887 44.6257 348.109 45.6122C349.294 46.5685 350.987 47.2554 353.089 47.735L353.534 45.785C351.57 45.3372 350.213 44.7401 349.365 44.0558C348.555 43.4016 348.212 42.6769 348.212 41.838H346.212ZM353.048 47.7248L362.464 50.2928L362.991 48.3632L353.575 45.7952L353.048 47.7248ZM362.488 50.2989C367.583 51.5552 371.139 53.5115 373.306 56.0729L374.833 54.7811C372.292 51.7785 368.287 49.6688 362.967 48.3571L362.488 50.2989ZM373.314 56.0827C375.481 58.5778 376.6 61.8253 376.6 65.913H378.6C378.6 61.4407 377.366 57.6975 374.824 54.7713L373.314 56.0827ZM376.6 65.913C376.6 70.493 374.668 74.156 370.707 76.9753L371.867 78.6047C376.324 75.432 378.6 71.177 378.6 65.913H376.6ZM370.71 76.9734C366.785 79.7479 361.654 81.177 355.237 81.177V83.177C361.946 83.177 367.515 81.6814 371.865 78.6066L370.71 76.9734Z" fill="white"/>
</svg>
