<svg width="267" height="61" viewBox="0 0 267 61" fill="none" xmlns="http://www.w3.org/2000/svg">
<path d="M0.32 3.2V2.2H-0.68V3.2H0.32ZM10.88 3.2L11.6882 2.61107L11.3886 2.2H10.88V3.2ZM29.36 28.56L28.5518 29.1489L29.36 30.258L30.1682 29.1489L29.36 28.56ZM47.84 3.2V2.2H47.3314L47.0318 2.61107L47.84 3.2ZM58.4 3.2H59.4V2.2H58.4V3.2ZM58.4 60V61H59.4V60H58.4ZM46.8 60H45.8V61H46.8V60ZM46.8 23.04H47.8V19.971L45.992 22.4509L46.8 23.04ZM29.36 46.96L28.552 47.5491L29.36 48.6574L30.168 47.5491L29.36 46.96ZM11.92 23.04L12.728 22.4509L10.92 19.971V23.04H11.92ZM11.92 60V61H12.92V60H11.92ZM0.32 60H-0.68V61H0.32V60ZM0.32 4.2H10.88V2.2H0.32V4.2ZM10.0718 3.78893L28.5518 29.1489L30.1682 27.9711L11.6882 2.61107L10.0718 3.78893ZM30.1682 29.1489L48.6482 3.78893L47.0318 2.61107L28.5518 27.9711L30.1682 29.1489ZM47.84 4.2H58.4V2.2H47.84V4.2ZM57.4 3.2V60H59.4V3.2H57.4ZM58.4 59H46.8V61H58.4V59ZM47.8 60V23.04H45.8V60H47.8ZM45.992 22.4509L28.552 46.3709L30.168 47.5491L47.608 23.6291L45.992 22.4509ZM30.168 46.3709L12.728 22.4509L11.112 23.6291L28.552 47.5491L30.168 46.3709ZM10.92 23.04V60H12.92V23.04H10.92ZM11.92 59H0.32V61H11.92V59ZM1.32 60L1.32 3.2H-0.68L-0.68 60H1.32ZM102.326 54.88L103.023 55.5964L103.028 55.5917L102.326 54.88ZM72.5656 54.88L71.8631 55.5917L71.8679 55.5964L72.5656 54.88ZM72.5656 25.2L73.2681 25.9117L72.5656 25.2ZM102.326 25.2L101.623 25.9117L102.326 25.2ZM94.4856 47.68L93.7597 46.9923L93.7592 46.9928L94.4856 47.68ZM94.4856 32.4L93.7501 33.0775L93.7594 33.0875L93.7689 33.0974L94.4856 32.4ZM80.2456 32.4L79.5197 31.7123L79.5192 31.7128L80.2456 32.4ZM80.2456 47.68L79.5101 48.3575L79.5194 48.3675L79.5289 48.3774L80.2456 47.68ZM101.628 54.1637C97.7109 57.9789 93.0024 59.88 87.4456 59.88V61.88C93.5155 61.88 98.7271 59.7811 103.023 55.5964L101.628 54.1637ZM87.4456 59.88C81.8889 59.88 77.1804 57.9789 73.2634 54.1637L71.8679 55.5964C76.1642 59.7811 81.3757 61.88 87.4456 61.88V59.88ZM73.2681 54.1683C69.3554 50.3064 67.4056 45.6042 67.4056 40H65.4056C65.4056 46.1291 67.5626 51.347 71.8632 55.5917L73.2681 54.1683ZM67.4056 40C67.4056 34.4519 69.3534 29.7756 73.2681 25.9117L71.8632 24.4883C67.5645 28.7311 65.4056 33.9214 65.4056 40H67.4056ZM73.2681 25.9117C77.1861 22.0446 81.893 20.12 87.4456 20.12V18.12C81.3716 18.12 76.1585 20.2487 71.8632 24.4883L73.2681 25.9117ZM87.4456 20.12C92.9982 20.12 97.7052 22.0446 101.623 25.9117L103.028 24.4883C98.7327 20.2487 93.5197 18.12 87.4456 18.12V20.12ZM101.623 25.9117C105.538 29.7756 107.486 34.4519 107.486 40H109.486C109.486 33.9214 107.327 28.7311 103.028 24.4883L101.623 25.9117ZM107.486 40C107.486 45.6042 105.536 50.3064 101.623 54.1683L103.028 55.5917C107.329 51.347 109.486 46.1291 109.486 40H107.486ZM87.4456 51.64C90.5346 51.64 93.1481 50.5492 95.2121 48.3672L93.7592 46.9928C92.0898 48.7575 90.01 49.64 87.4456 49.64V51.64ZM95.2116 48.3677C97.3272 46.1346 98.3656 43.3191 98.3656 40H96.3656C96.3656 42.8675 95.4841 45.1721 93.7597 46.9923L95.2116 48.3677ZM98.3656 40C98.3656 36.6812 97.327 33.8863 95.2024 31.7026L93.7689 33.0974C95.4842 34.8603 96.3656 37.1322 96.3656 40H98.3656ZM95.2212 31.7225C93.1597 29.4843 90.5436 28.36 87.4456 28.36V30.36C90.001 30.36 92.0782 31.2623 93.7501 33.0775L95.2212 31.7225ZM87.4456 28.36C84.3008 28.36 81.6352 29.4792 79.5197 31.7123L80.9716 33.0877C82.6961 31.2674 84.8304 30.36 87.4456 30.36V28.36ZM79.5192 31.7128C77.4522 33.8979 76.4456 36.6893 76.4456 40H78.4456C78.4456 37.124 79.3057 34.8488 80.9721 33.0872L79.5192 31.7128ZM76.4456 40C76.4456 43.3111 77.4521 46.1231 79.5101 48.3575L80.9812 47.0025C79.3058 45.1835 78.4456 42.8755 78.4456 40H76.4456ZM79.5289 48.3774C81.6466 50.5539 84.3096 51.64 87.4456 51.64V49.64C84.8217 49.64 82.6846 48.7527 80.9623 46.9826L79.5289 48.3774ZM119.269 54.72L120.019 54.0581L119.269 54.72ZM119.269 25.28L120.019 25.9419V25.9419L119.269 25.28ZM139.509 20.72L139.975 19.8351L139.509 20.72ZM144.149 24.48L143.346 25.0752L145.149 27.51V24.48H144.149ZM144.149 -3.8147e-06V-1H143.149V-3.8147e-06H144.149ZM155.109 -3.8147e-06H156.109V-1H155.109V-3.8147e-06ZM155.109 60V61H156.109V60H155.109ZM144.149 60H143.149V61H144.149V60ZM144.149 55.52H145.149V52.49L143.346 54.9248L144.149 55.52ZM139.509 59.28L139.975 60.1649L139.509 59.28ZM127.589 47.84L126.844 48.5068L126.849 48.5122L126.854 48.5175L127.589 47.84ZM142.229 47.84L141.494 47.1625L141.489 47.1678L141.484 47.1732L142.229 47.84ZM142.229 32.16L141.484 32.8268L141.489 32.8322L141.494 32.8375L142.229 32.16ZM127.589 32.16L126.854 31.4825L126.849 31.4878L126.844 31.4932L127.589 32.16ZM132.629 59.88C127.648 59.88 123.464 57.959 120.019 54.0581L118.52 55.3819C122.328 59.6943 127.051 61.88 132.629 61.88V59.88ZM120.019 54.0581C116.561 50.1423 114.829 45.474 114.829 40H112.829C112.829 45.9394 114.725 51.0844 118.52 55.3819L120.019 54.0581ZM114.829 40C114.829 34.526 116.561 29.8577 120.019 25.9419L118.52 24.6181C114.725 28.9156 112.829 34.0606 112.829 40H114.829ZM120.019 25.9419C123.464 22.041 127.648 20.12 132.629 20.12V18.12C127.051 18.12 122.328 20.3057 118.52 24.6181L120.019 25.9419ZM132.629 20.12C135.046 20.12 137.177 20.6224 139.044 21.6049L139.975 19.8351C137.789 18.6843 135.332 18.12 132.629 18.12V20.12ZM139.044 21.6049C140.973 22.6204 142.39 23.7847 143.346 25.0752L144.953 23.8848C143.776 22.2953 142.099 20.9529 139.975 19.8351L139.044 21.6049ZM145.149 24.48V-3.8147e-06H143.149V24.48H145.149ZM144.149 0.999996H155.109V-1H144.149V0.999996ZM154.109 -3.8147e-06V60H156.109V-3.8147e-06H154.109ZM155.109 59H144.149V61H155.109V59ZM145.149 60V55.52H143.149V60H145.149ZM143.346 54.9248C142.39 56.2153 140.973 57.3796 139.044 58.3951L139.975 60.1649C142.099 59.0471 143.776 57.7047 144.953 56.1152L143.346 54.9248ZM139.044 58.3951C137.177 59.3776 135.046 59.88 132.629 59.88V61.88C135.332 61.88 137.789 61.3157 139.975 60.1649L139.044 58.3951ZM126.854 48.5175C128.931 50.7722 131.662 51.88 134.949 51.88V49.88C132.157 49.88 129.982 48.9611 128.325 47.1625L126.854 48.5175ZM134.949 51.88C138.237 51.88 140.948 50.7718 142.975 48.5068L141.484 47.1732C139.884 48.9615 137.742 49.88 134.949 49.88V51.88ZM142.965 48.5175C145.029 46.2766 146.029 43.4078 146.029 40H144.029C144.029 42.9922 143.163 45.35 141.494 47.1625L142.965 48.5175ZM146.029 40C146.029 36.5922 145.029 33.7234 142.965 31.4825L141.494 32.8375C143.163 34.65 144.029 37.0078 144.029 40H146.029ZM142.975 31.4932C140.948 29.2282 138.237 28.12 134.949 28.12V30.12C137.742 30.12 139.884 31.0385 141.484 32.8268L142.975 31.4932ZM134.949 28.12C131.662 28.12 128.931 29.2278 126.854 31.4825L128.325 32.8375C129.982 31.0389 132.157 30.12 134.949 30.12V28.12ZM126.844 31.4932C124.838 33.7349 123.869 36.6 123.869 40H125.869C125.869 37 126.714 34.6385 128.335 32.8268L126.844 31.4932ZM123.869 40C123.869 43.4 124.838 46.2651 126.844 48.5068L128.335 47.1732C126.714 45.3615 125.869 43 125.869 40H123.869ZM169.044 54.96L168.332 55.6623L168.337 55.6671L169.044 54.96ZM169.124 25.04L168.422 24.3281L168.417 24.3329L169.124 25.04ZM199.524 25.44L198.804 26.1333L198.808 26.1379L199.524 25.44ZM205.124 42.56V43.56H206.081L206.123 42.6041L205.124 42.56ZM173.924 42.56V41.56H172.836L172.928 42.6448L173.924 42.56ZM177.044 48.88L176.37 49.618L176.375 49.6234L176.381 49.6286L177.044 48.88ZM189.924 50.24L190.372 51.1345L190.384 51.1282L189.924 50.24ZM193.204 46.96V45.96H192.565L192.296 46.5409L193.204 46.96ZM204.644 46.96L205.606 47.2347L205.97 45.96H204.644V46.96ZM197.284 57.04L197.85 57.8648L197.858 57.8592L197.284 57.04ZM177.604 30L178.217 30.7907L178.22 30.788L177.604 30ZM174.324 35.36L173.35 35.1335L173.065 36.36H174.324V35.36ZM193.124 35.36V36.36H194.385L194.098 35.1321L193.124 35.36ZM189.604 29.84L189.021 30.652L189.035 30.6623L189.05 30.6721L189.604 29.84ZM184.164 59.88C178.267 59.88 173.491 57.9926 169.751 54.2529L168.337 55.6671C172.491 59.8208 177.795 61.88 184.164 61.88V59.88ZM169.756 54.2577C166.066 50.5171 164.204 45.765 164.204 39.92H162.204C162.204 46.235 164.236 51.5095 168.332 55.6623L169.756 54.2577ZM164.204 39.92C164.204 34.1913 166.086 29.4921 169.831 25.7471L168.417 24.3329C164.269 28.4812 162.204 33.7021 162.204 39.92H164.204ZM169.827 25.7518C173.623 22.0058 178.404 20.12 184.244 20.12V18.12C177.925 18.12 172.625 20.1808 168.422 24.3282L169.827 25.7518ZM184.244 20.12C190.121 20.12 194.949 22.1264 198.804 26.1333L200.245 24.7467C195.993 20.3269 190.635 18.12 184.244 18.12V20.12ZM198.808 26.1379C202.623 30.053 204.436 35.4648 204.125 42.5159L206.123 42.6041C206.452 35.1485 204.533 29.147 200.241 24.7421L198.808 26.1379ZM205.124 41.56H173.924V43.56H205.124V41.56ZM172.928 42.6448C173.163 45.4034 174.319 47.7428 176.37 49.618L177.719 48.142C176.037 46.6039 175.113 44.7299 174.921 42.4752L172.928 42.6448ZM176.381 49.6286C178.481 51.4881 181.303 52.36 184.724 52.36V50.36C181.639 50.36 179.341 49.5786 177.707 48.1314L176.381 49.6286ZM184.724 52.36C186.825 52.36 188.716 51.9621 190.372 51.1344L189.477 49.3456C188.146 50.0113 186.571 50.36 184.724 50.36V52.36ZM190.384 51.1282C192.099 50.2411 193.366 48.9954 194.112 47.3791L192.296 46.5409C191.762 47.6979 190.843 48.6389 189.465 49.3518L190.384 51.1282ZM193.204 47.96H204.644V45.96H193.204V47.96ZM203.683 46.6853C202.577 50.5559 200.27 53.7296 196.711 56.2208L197.858 57.8592C201.766 55.1238 204.365 51.5774 205.606 47.2347L203.683 46.6853ZM196.719 56.2153C193.17 58.6489 188.998 59.88 184.164 59.88V61.88C189.357 61.88 193.932 60.5511 197.85 57.8647L196.719 56.2153ZM183.924 27C181.231 27 178.898 27.7203 176.989 29.212L178.22 30.788C179.724 29.6131 181.604 29 183.924 29V27ZM176.992 29.2093C175.134 30.6479 173.929 32.646 173.35 35.1335L175.298 35.5865C175.787 33.4873 176.768 31.9121 178.217 30.7907L176.992 29.2093ZM174.324 36.36H193.124V34.36H174.324V36.36ZM194.098 35.1321C193.467 32.4348 192.174 30.3514 190.159 29.0079L189.05 30.6721C190.554 31.6753 191.609 33.2719 192.151 35.5879L194.098 35.1321ZM190.188 29.028C188.313 27.6805 186.216 27 183.924 27V29C185.793 29 187.482 29.5462 189.021 30.652L190.188 29.028ZM213.108 60H212.108V61H213.108V60ZM213.108 -3.8147e-06V-1H212.108V-3.8147e-06H213.108ZM224.068 -3.8147e-06H225.068V-1H224.068V-3.8147e-06ZM224.068 60V61H225.068V60H224.068ZM214.108 60V-3.8147e-06H212.108V60H214.108ZM213.108 0.999996H224.068V-1H213.108V0.999996ZM223.068 -3.8147e-06V60H225.068V-3.8147e-06H223.068ZM224.068 59H213.108V61H224.068V59ZM237.312 57.04L237.919 56.2446L237.312 57.04ZM231.952 47.28V46.28H230.897L230.954 47.334L231.952 47.28ZM243.393 47.28L244.385 47.156L244.275 46.28H243.393V47.28ZM245.633 51.2L245.054 52.016L245.066 52.0242L245.078 52.0321L245.633 51.2ZM254.353 46.88L253.735 47.6663L253.765 47.6904L253.798 47.7121L254.353 46.88ZM250.513 45.28L250.768 44.3133L250.76 44.3111L250.513 45.28ZM242.992 43.36L242.736 44.3265L242.745 44.3289L242.992 43.36ZM235.312 38.8L234.515 39.4031L234.523 39.414L234.532 39.4247L235.312 38.8ZM237.152 22.48L237.757 23.2764L237.759 23.2748L237.152 22.48ZM260.112 22.56L259.503 23.3532L259.513 23.36L260.112 22.56ZM265.073 31.76V32.76H266.158L266.069 31.6781L265.073 31.76ZM254.033 31.76L253.048 31.9338L253.194 32.76H254.033V31.76ZM245.312 28.48L244.783 27.632L245.312 28.48ZM248.592 34.4L248.856 33.4352L248.835 33.4297L248.815 33.425L248.592 34.4ZM255.633 36.32L255.369 37.2848L255.381 37.288L255.393 37.2909L255.633 36.32ZM264.112 40.88L263.349 41.526L263.357 41.5357L264.112 40.88ZM262.033 57.6L262.61 58.4166L262.612 58.4147L262.033 57.6ZM250.033 59.88C245.084 59.88 241.07 58.6456 237.919 56.2446L236.706 57.8354C240.275 60.5544 244.741 61.88 250.033 61.88V59.88ZM237.919 56.2446C234.773 53.8483 233.147 50.8578 232.951 47.226L230.954 47.334C231.184 51.5955 233.132 55.1117 236.706 57.8354L237.919 56.2446ZM231.952 48.28H243.393V46.28H231.952V48.28ZM242.4 47.404C242.645 49.3593 243.522 50.9304 245.054 52.016L246.211 50.384C245.183 49.6563 244.567 48.614 244.385 47.156L242.4 47.404ZM245.078 52.0321C246.554 53.0164 248.331 53.48 250.353 53.48V51.48C248.641 51.48 247.271 51.0903 246.187 50.368L245.078 52.0321ZM250.353 53.48C252.156 53.48 253.677 53.2084 254.777 52.5317C255.956 51.8059 256.552 50.6736 256.552 49.28H254.552C254.552 50.0197 254.282 50.4874 253.728 50.8283C253.095 51.2183 252.016 51.48 250.353 51.48V53.48ZM256.552 49.28C256.552 47.922 256.019 46.7894 254.907 46.048L253.798 47.7121C254.286 48.0372 254.552 48.5046 254.552 49.28H256.552ZM254.97 46.0937C254.056 45.3754 252.61 44.8008 250.768 44.3133L250.257 46.2467C252.042 46.7192 253.156 47.2113 253.735 47.6663L254.97 46.0937ZM250.76 44.3111L243.24 42.3911L242.745 44.3289L250.265 46.2489L250.76 44.3111ZM243.249 42.3935C239.982 41.5257 237.632 40.0984 236.093 38.1753L234.532 39.4247C236.406 41.7682 239.176 43.381 242.736 44.3265L243.249 42.3935ZM236.11 38.1969C234.602 36.2028 233.833 33.8073 233.833 30.96H231.833C231.833 34.1927 232.716 37.0239 234.515 39.4031L236.11 38.1969ZM233.833 30.96C233.833 27.8214 235.114 25.2836 237.757 23.2764L236.548 21.6836C233.431 24.0498 231.833 27.1652 231.833 30.96H233.833ZM237.759 23.2748C240.469 21.2058 244.153 20.12 248.913 20.12V18.12C243.858 18.12 239.703 19.2742 236.546 21.6852L237.759 23.2748ZM248.913 20.12C253.215 20.12 256.723 21.2181 259.503 23.3531L260.722 21.7668C257.529 19.3152 253.57 18.12 248.913 18.12V20.12ZM259.513 23.36C262.259 25.4195 263.778 28.2186 264.076 31.8419L266.069 31.6781C265.727 27.5147 263.94 24.1805 260.712 21.76L259.513 23.36ZM265.073 30.76H254.033V32.76H265.073V30.76ZM255.017 31.5862C254.745 30.0429 254.086 28.7754 252.964 27.9087C251.855 27.0514 250.414 26.68 248.753 26.68V28.68C250.131 28.68 251.09 28.9886 251.741 29.4913C252.379 29.9846 252.84 30.7571 253.048 31.9338L255.017 31.5862ZM248.753 26.68C247.202 26.68 245.849 26.9653 244.783 27.632L245.842 29.328C246.482 28.928 247.423 28.68 248.753 28.68V26.68ZM244.783 27.632C243.654 28.3374 243.033 29.3956 243.033 30.72H245.033C245.033 30.1244 245.264 29.6893 245.842 29.328L244.783 27.632ZM243.033 30.72C243.033 31.9381 243.579 32.9587 244.544 33.7382C245.473 34.4875 246.781 35.0124 248.37 35.375L248.815 33.425C247.364 33.0942 246.392 32.6591 245.801 32.1818C245.246 31.7346 245.033 31.2619 245.033 30.72H243.033ZM248.329 35.3648L255.369 37.2848L255.896 35.3552L248.856 33.4352L248.329 35.3648ZM255.393 37.2909C259.174 38.2232 261.776 39.6665 263.349 41.5259L264.876 40.2341C262.929 37.9335 259.878 36.3368 255.872 35.3491L255.393 37.2909ZM263.357 41.5357C264.93 43.3468 265.753 45.7123 265.753 48.72H267.753C267.753 45.3277 266.815 42.4665 264.868 40.2243L263.357 41.5357ZM265.753 48.72C265.753 52.058 264.351 54.722 261.453 56.7853L262.612 58.4147C266.007 55.998 267.753 52.742 267.753 48.72H265.753ZM261.455 56.7834C258.574 58.8199 254.793 59.88 250.033 59.88V61.88C255.085 61.88 259.304 60.7534 262.61 58.4166L261.455 56.7834Z" fill="white"/>
</svg>
