<svg width="479" height="104" viewBox="0 0 479 104" fill="none" xmlns="http://www.w3.org/2000/svg">
<path d="M0.453 81H-0.546999V82H0.453V81ZM0.453 5.02999V4.02999H-0.546999V5.02999H0.453ZM46.356 11.45L45.6489 12.1571L45.6548 12.1629L46.356 11.45ZM37.261 47.295L36.9665 46.3394L35.5534 46.7749L36.4838 47.9242L37.261 47.295ZM64.546 81V82H66.6421L65.3232 80.3708L64.546 81ZM45.821 81L45.0462 81.6322L45.3463 82H45.821V81ZM19.713 49.007L20.4878 48.3747L20.1877 48.007H19.713V49.007ZM15.968 49.007V48.007H14.968V49.007H15.968ZM15.968 81V82H16.968V81H15.968ZM15.968 35.739H14.968V36.739H15.968V35.739ZM34.8 33.599L35.4402 34.3672L35.4432 34.3647L34.8 33.599ZM34.8 21.508L34.1415 22.2606L34.1581 22.2751L34.1753 22.2889L34.8 21.508ZM15.968 19.261V18.261H14.968V19.261H15.968ZM1.453 81L1.453 5.02999H-0.546999L-0.546999 81H1.453ZM0.453 6.02999H29.557V4.02999H0.453V6.02999ZM29.557 6.02999C36.2524 6.02999 41.5837 8.09192 45.6489 12.1571L47.0631 10.7429C42.5683 6.24807 36.7003 4.02999 29.557 4.02999V6.02999ZM45.6548 12.1629C49.8042 16.2443 51.883 21.3326 51.883 27.5H53.883C53.883 20.8274 51.6105 15.2157 47.0572 10.7371L45.6548 12.1629ZM51.883 27.5C51.883 32.3124 50.632 36.2282 48.1925 39.3192C45.747 42.418 42.0371 44.7765 36.9665 46.3394L37.5555 48.2506C42.8996 46.6035 47.0007 44.0578 49.7625 40.5583C52.5304 37.051 53.883 32.6742 53.883 27.5H51.883ZM36.4838 47.9242L63.7688 81.6292L65.3232 80.3708L38.0382 46.6658L36.4838 47.9242ZM64.546 80H45.821V82H64.546V80ZM46.5958 80.3678L20.4878 48.3747L18.9382 49.6392L45.0462 81.6322L46.5958 80.3678ZM19.713 48.007H15.968V50.007H19.713V48.007ZM14.968 49.007V81H16.968V49.007H14.968ZM15.968 80H0.453V82H15.968V80ZM15.968 36.739H27.738V34.739H15.968V36.739ZM27.738 36.739C30.8871 36.739 33.4949 35.9883 35.4402 34.3672L34.1598 32.8308C32.6811 34.063 30.5809 34.739 27.738 34.739V36.739ZM35.4432 34.3647C37.4777 32.6557 38.475 30.3291 38.475 27.5H36.475C36.475 29.8069 35.689 31.5463 34.1568 32.8333L35.4432 34.3647ZM38.475 27.5C38.475 24.6711 37.4768 22.3688 35.4247 20.7271L34.1753 22.2889C35.6899 23.5005 36.475 25.1929 36.475 27.5H38.475ZM35.4585 20.7554C33.5129 19.0531 30.8981 18.261 27.738 18.261V20.261C30.5699 20.261 32.6631 20.9669 34.1415 22.2606L35.4585 20.7554ZM27.738 18.261H15.968V20.261H27.738V18.261ZM14.968 19.261V35.739H16.968V19.261H14.968ZM111.18 74.152L111.878 74.8684L111.883 74.8637L111.18 74.152ZM71.3764 74.152L70.674 74.8637L70.6787 74.8683L71.3764 74.152ZM71.3764 34.455L72.0789 35.1667L71.3764 34.455ZM111.18 34.455L110.478 35.1667L111.18 34.455ZM100.694 64.522L99.9685 63.8343L99.968 63.8348L100.694 64.522ZM100.694 44.085L99.9589 44.7625L99.9682 44.7725L99.9777 44.7823L100.694 44.085ZM81.6484 44.085L80.9225 43.3973L80.922 43.3978L81.6484 44.085ZM81.6484 64.522L80.9129 65.1995L80.9222 65.2095L80.9317 65.2194L81.6484 64.522ZM110.483 73.4357C105.18 78.6009 98.7972 81.177 91.2784 81.177V83.177C99.3103 83.177 106.196 80.4031 111.878 74.8683L110.483 73.4357ZM91.2784 81.177C83.7597 81.177 77.3772 78.6009 72.0742 73.4357L70.6787 74.8683C76.361 80.4031 83.2466 83.177 91.2784 83.177V81.177ZM72.0789 73.4403C66.7802 68.2104 64.1374 61.8342 64.1374 54.25H62.1374C62.1374 62.3591 64.9874 69.251 70.674 74.8637L72.0789 73.4403ZM64.1374 54.25C64.1374 46.7399 66.7782 40.3986 72.0789 35.1667L70.674 33.7433C64.9893 39.3541 62.1374 46.2094 62.1374 54.25H64.1374ZM72.0789 35.1667C77.3829 29.9316 83.7639 27.323 91.2784 27.323V25.323C83.2424 25.323 76.3554 28.1357 70.674 33.7433L72.0789 35.1667ZM91.2784 27.323C98.793 27.323 105.174 29.9316 110.478 35.1667L111.883 33.7433C106.202 28.1357 99.3145 25.323 91.2784 25.323V27.323ZM110.478 35.1667C115.779 40.3986 118.419 46.7399 118.419 54.25H120.419C120.419 46.2094 117.568 39.3541 111.883 33.7433L110.478 35.1667ZM118.419 54.25C118.419 61.8342 115.777 68.2104 110.478 73.4403L111.883 74.8637C117.57 69.251 120.419 62.3591 120.419 54.25H118.419ZM91.2784 69.481C95.3214 69.481 98.7269 68.0572 101.421 65.2092L99.968 63.8348C97.6687 66.2655 94.7968 67.481 91.2784 67.481V69.481ZM101.42 65.2097C104.184 62.2926 105.546 58.6131 105.546 54.25H103.546C103.546 58.1615 102.341 61.3301 99.9685 63.8343L101.42 65.2097ZM105.546 54.25C105.546 49.8872 104.184 46.2373 101.411 43.3876L99.9777 44.7823C102.341 47.2113 103.546 50.3382 103.546 54.25H105.546ZM101.43 43.4075C98.7385 40.4853 95.3304 39.019 91.2784 39.019V41.019C94.7878 41.019 97.6571 42.2633 99.9589 44.7625L101.43 43.4075ZM91.2784 39.019C87.1616 39.019 83.686 40.4802 80.9225 43.3973L82.3744 44.7727C84.7469 42.2684 87.6912 41.019 91.2784 41.019V39.019ZM80.922 43.3978C78.225 46.2489 76.9034 49.8953 76.9034 54.25H78.9034C78.9034 50.33 80.0785 47.1998 82.3749 44.7722L80.922 43.3978ZM76.9034 54.25C76.9034 58.6051 78.2249 62.2811 80.9129 65.1995L82.384 63.8445C80.0786 61.3415 78.9034 58.1695 78.9034 54.25H76.9034ZM80.9317 65.2194C83.6975 68.0619 87.1704 69.481 91.2784 69.481V67.481C87.6825 67.481 84.7354 66.2607 82.3652 63.8246L80.9317 65.2194ZM133.843 73.938L134.592 73.2761L133.843 73.938ZM133.843 34.562L134.592 35.2239L133.843 34.562ZM160.914 28.463L161.379 27.5781L160.914 28.463ZM167.12 33.492L166.316 34.0872L168.12 36.522V33.492H167.12ZM167.12 27.5V26.5H166.12V27.5H167.12ZM181.779 27.5H182.779V26.5H181.779V27.5ZM181.779 81V82H182.779V81H181.779ZM167.12 81H166.12V82H167.12V81ZM167.12 75.008H168.12V71.978L166.316 74.4128L167.12 75.008ZM160.914 80.037L161.379 80.9219L160.914 80.037ZM144.971 64.736L144.225 65.4028L144.23 65.4082L144.235 65.4135L144.971 64.736ZM164.552 64.736L163.816 64.0585L163.811 64.0638L163.806 64.0692L164.552 64.736ZM164.552 43.764L163.806 44.4308L163.811 44.4362L163.816 44.4415L164.552 43.764ZM144.971 43.764L144.235 43.0865L144.23 43.0918L144.225 43.0972L144.971 43.764ZM151.712 81.177C144.949 81.177 139.261 78.563 134.592 73.2761L133.093 74.5999C138.126 80.2983 144.351 83.177 151.712 83.177V81.177ZM134.592 73.2761C129.91 67.9743 127.567 61.65 127.567 54.25H125.567C125.567 62.1154 128.074 68.9164 133.093 74.5999L134.592 73.2761ZM127.567 54.25C127.567 46.85 129.91 40.5257 134.592 35.2239L133.093 33.9001C128.074 39.5836 125.567 46.3846 125.567 54.25H127.567ZM134.592 35.2239C139.261 29.937 144.949 27.323 151.712 27.323V25.323C144.351 25.323 138.126 28.2017 133.093 33.9001L134.592 35.2239ZM151.712 27.323C154.993 27.323 157.897 28.0054 160.448 29.3479L161.379 27.5781C158.509 26.0673 155.279 25.323 151.712 25.323V27.323ZM160.448 29.3479C163.061 30.7234 165 32.3107 166.316 34.0872L167.923 32.8968C166.386 30.8213 164.187 29.0559 161.379 27.5781L160.448 29.3479ZM168.12 33.492V27.5H166.12V33.492H168.12ZM167.12 28.5H181.779V26.5H167.12V28.5ZM180.779 27.5V81H182.779V27.5H180.779ZM181.779 80H167.12V82H181.779V80ZM168.12 81V75.008H166.12V81H168.12ZM166.316 74.4128C165 76.1893 163.061 77.7766 160.448 79.1521L161.379 80.9219C164.187 79.4441 166.386 77.6787 167.923 75.6032L166.316 74.4128ZM160.448 79.1521C157.897 80.4946 154.993 81.177 151.712 81.177V83.177C155.279 83.177 158.509 82.4327 161.379 80.9219L160.448 79.1521ZM144.235 65.4135C146.942 68.3522 150.501 69.802 154.815 69.802V67.802C150.996 67.802 147.993 66.5411 145.706 64.0585L144.235 65.4135ZM154.815 69.802C159.128 69.802 162.658 68.3518 165.297 65.4028L163.806 64.0692C161.594 66.5415 158.634 67.802 154.815 67.802V69.802ZM165.287 65.4135C167.981 62.4886 169.297 58.7378 169.297 54.25H167.297C167.297 58.3222 166.116 61.562 163.816 64.0585L165.287 65.4135ZM169.297 54.25C169.297 49.7622 167.981 46.0114 165.287 43.0865L163.816 44.4415C166.116 46.938 167.297 50.1778 167.297 54.25H169.297ZM165.297 43.0972C162.658 40.1482 159.128 38.698 154.815 38.698V40.698C158.634 40.698 161.594 41.9585 163.806 44.4308L165.297 43.0972ZM154.815 38.698C150.501 38.698 146.942 40.1478 144.235 43.0865L145.706 44.4415C147.993 41.9589 150.996 40.698 154.815 40.698V38.698ZM144.225 43.0972C141.608 46.0229 140.333 49.77 140.333 54.25H142.333C142.333 50.17 143.483 46.9265 145.716 44.4308L144.225 43.0972ZM140.333 54.25C140.333 58.73 141.608 62.4771 144.225 65.4028L145.716 64.0692C143.483 61.5735 142.333 58.33 142.333 54.25H140.333ZM199.882 73.938L200.631 73.2761L199.882 73.938ZM199.882 34.562L200.631 35.2239L199.882 34.562ZM226.953 28.463L227.419 27.5781L226.953 28.463ZM233.159 33.492L232.355 34.0872L234.159 36.522V33.492H233.159ZM233.159 0.749994V-0.250006H232.159V0.749994H233.159ZM247.818 0.749994H248.818V-0.250006H247.818V0.749994ZM247.818 81V82H248.818V81H247.818ZM233.159 81H232.159V82H233.159V81ZM233.159 75.008H234.159V71.978L232.355 74.4128L233.159 75.008ZM226.953 80.037L227.419 80.9219L226.953 80.037ZM211.01 64.736L210.265 65.4028L210.269 65.4082L210.274 65.4135L211.01 64.736ZM230.591 64.736L229.855 64.0585L229.85 64.0638L229.846 64.0692L230.591 64.736ZM230.591 43.764L229.846 44.4308L229.85 44.4362L229.855 44.4415L230.591 43.764ZM211.01 43.764L210.274 43.0865L210.269 43.0918L210.265 43.0972L211.01 43.764ZM217.751 81.177C210.988 81.177 205.3 78.563 200.631 73.2761L199.132 74.5999C204.165 80.2983 210.39 83.177 217.751 83.177V81.177ZM200.631 73.2761C195.949 67.9743 193.606 61.65 193.606 54.25H191.606C191.606 62.1154 194.113 68.9164 199.132 74.5999L200.631 73.2761ZM193.606 54.25C193.606 46.85 195.949 40.5257 200.631 35.2239L199.132 33.9001C194.113 39.5836 191.606 46.3846 191.606 54.25H193.606ZM200.631 35.2239C205.3 29.937 210.988 27.323 217.751 27.323V25.323C210.39 25.323 204.165 28.2017 199.132 33.9001L200.631 35.2239ZM217.751 27.323C221.032 27.323 223.936 28.0054 226.487 29.3479L227.419 27.5781C224.548 26.0673 221.318 25.323 217.751 25.323V27.323ZM226.487 29.3479C229.101 30.7234 231.039 32.3107 232.355 34.0872L233.962 32.8968C232.425 30.8213 230.226 29.0559 227.419 27.5781L226.487 29.3479ZM234.159 33.492V0.749994H232.159V33.492H234.159ZM233.159 1.74999H247.818V-0.250006H233.159V1.74999ZM246.818 0.749994V81H248.818V0.749994H246.818ZM247.818 80H233.159V82H247.818V80ZM234.159 81V75.008H232.159V81H234.159ZM232.355 74.4128C231.039 76.1893 229.101 77.7766 226.487 79.1521L227.419 80.9219C230.226 79.4441 232.425 77.6787 233.962 75.6032L232.355 74.4128ZM226.487 79.1521C223.936 80.4946 221.032 81.177 217.751 81.177V83.177C221.318 83.177 224.548 82.4327 227.419 80.9219L226.487 79.1521ZM210.274 65.4135C212.981 68.3522 216.54 69.802 220.854 69.802V67.802C217.035 67.802 214.032 66.5411 211.745 64.0585L210.274 65.4135ZM220.854 69.802C225.167 69.802 228.697 68.3518 231.336 65.4028L229.846 64.0692C227.633 66.5415 224.673 67.802 220.854 67.802V69.802ZM231.326 65.4135C234.02 62.4886 235.336 58.7378 235.336 54.25H233.336C233.336 58.3222 232.155 61.562 229.855 64.0585L231.326 65.4135ZM235.336 54.25C235.336 49.7622 234.02 46.0114 231.326 43.0865L229.855 44.4415C232.155 46.938 233.336 50.1778 233.336 54.25H235.336ZM231.336 43.0972C228.697 40.1482 225.167 38.698 220.854 38.698V40.698C224.673 40.698 227.633 41.9585 229.846 44.4308L231.336 43.0972ZM220.854 38.698C216.54 38.698 212.981 40.1478 210.274 43.0865L211.745 44.4415C214.032 41.9589 217.035 40.698 220.854 40.698V38.698ZM210.265 43.0972C207.647 46.0229 206.372 49.77 206.372 54.25H208.372C208.372 50.17 209.522 46.9265 211.755 44.4308L210.265 43.0972ZM206.372 54.25C206.372 58.73 207.647 62.4771 210.265 65.4028L211.755 64.0692C209.522 61.5735 208.372 58.33 208.372 54.25H206.372ZM329.479 81H328.479V82H329.479V81ZM313.429 43.336L312.646 42.7141L312.64 42.7213L312.634 42.7285L313.429 43.336ZM310.433 54.143L309.433 54.1132L309.433 54.1281V54.143H310.433ZM310.433 81V82H311.433V81H310.433ZM295.774 81H294.774V82H295.774V81ZM279.617 43.55L278.817 42.95L279.617 43.55ZM276.728 81V82H277.728V81H276.728ZM262.069 81H261.069V82H262.069V81ZM262.069 27.5V26.5H261.069V27.5H262.069ZM276.728 27.5H277.728V26.5H276.728V27.5ZM276.728 33.599H275.728V36.8046L277.55 34.1676L276.728 33.599ZM307.544 36.167L306.665 36.6445L307.571 38.3103L308.434 36.6225L307.544 36.167ZM314.606 28.998L315.085 29.8759L315.092 29.8717L315.1 29.8675L314.606 28.998ZM344.138 81V82H345.138V81H344.138ZM330.479 81V52.431H328.479V81H330.479ZM330.479 52.431C330.479 48.1093 329.776 44.6944 328.229 42.3331C326.633 39.8982 324.213 38.698 321.133 38.698V40.698C323.616 40.698 325.37 41.62 326.556 43.4294C327.79 45.3125 328.479 48.2641 328.479 52.431H330.479ZM321.133 38.698C317.631 38.698 314.769 40.04 312.646 42.7141L314.212 43.9579C315.94 41.7814 318.215 40.698 321.133 40.698V38.698ZM312.634 42.7285C310.599 45.3903 309.579 49.2347 309.433 54.1132L311.432 54.1728C311.572 49.4926 312.549 46.1323 314.223 43.9434L312.634 42.7285ZM309.433 54.143V81H311.433V54.143H309.433ZM310.433 80H295.774V82H310.433V80ZM296.774 81V52.431H294.774V81H296.774ZM296.774 52.431C296.774 48.1093 296.071 44.6944 294.524 42.3331C292.928 39.8982 290.508 38.698 287.428 38.698V40.698C289.911 40.698 291.665 41.62 292.851 43.4294C294.085 45.3125 294.774 48.2641 294.774 52.431H296.774ZM287.428 38.698C283.84 38.698 280.937 40.1237 278.817 42.95L280.417 44.15C282.149 41.8403 284.453 40.698 287.428 40.698V38.698ZM278.817 42.95C276.707 45.7635 275.728 49.7949 275.728 54.892H277.728C277.728 50.0024 278.675 46.4725 280.417 44.15L278.817 42.95ZM275.728 54.892V81H277.728V54.892H275.728ZM276.728 80H262.069V82H276.728V80ZM263.069 81V27.5H261.069V81H263.069ZM262.069 28.5H276.728V26.5H262.069V28.5ZM275.728 27.5V33.599H277.728V27.5H275.728ZM277.55 34.1676C280.708 29.5998 285.137 27.323 290.959 27.323V25.323C284.512 25.323 279.453 27.8969 275.905 33.0304L277.55 34.1676ZM290.959 27.323C294.554 27.323 297.626 28.1091 300.212 29.6439C302.798 31.1786 304.954 33.4955 306.665 36.6445L308.422 35.6895C306.567 32.2758 304.176 29.6707 301.233 27.9241C298.29 26.1775 294.853 25.323 290.959 25.323V27.323ZM308.434 36.6225C309.908 33.7411 312.115 31.4955 315.085 29.8759L314.127 28.1201C310.819 29.9245 308.318 32.4582 306.654 35.7115L308.434 36.6225ZM315.1 29.8675C318.107 28.1588 321.113 27.323 324.129 27.323V25.323C320.725 25.323 317.382 26.2705 314.112 28.1285L315.1 29.8675ZM324.129 27.323C330.233 27.323 334.852 29.333 338.126 33.2749L339.664 31.9971C335.947 27.5217 330.722 25.323 324.129 25.323V27.323ZM338.126 33.2749C341.427 37.2507 343.138 42.7757 343.138 49.97H345.138C345.138 42.4696 343.353 36.4386 339.664 31.9971L338.126 33.2749ZM343.138 49.97V81H345.138V49.97H343.138ZM344.138 80H329.479V82H344.138V80ZM361.427 73.938L362.176 73.2761L361.427 73.938ZM361.427 34.562L362.176 35.2239L361.427 34.562ZM388.498 28.463L388.963 27.5781L388.498 28.463ZM394.704 33.492L393.9 34.0872L395.704 36.522V33.492H394.704ZM394.704 27.5V26.5H393.704V27.5H394.704ZM409.363 27.5H410.363V26.5H409.363V27.5ZM409.363 81V82H410.363V81H409.363ZM394.704 81H393.704V82H394.704V81ZM394.704 75.008H395.704V71.978L393.9 74.4128L394.704 75.008ZM388.498 80.037L388.963 80.9219L388.498 80.037ZM372.555 64.736L371.809 65.4028L371.814 65.4082L371.819 65.4135L372.555 64.736ZM392.136 64.736L391.4 64.0585L391.395 64.0638L391.39 64.0692L392.136 64.736ZM392.136 43.764L391.39 44.4308L391.395 44.4362L391.4 44.4415L392.136 43.764ZM372.555 43.764L371.819 43.0865L371.814 43.0918L371.809 43.0972L372.555 43.764ZM379.296 81.177C372.533 81.177 366.845 78.563 362.176 73.2761L360.677 74.5999C365.709 80.2983 371.935 83.177 379.296 83.177V81.177ZM362.176 73.2761C357.494 67.9743 355.151 61.65 355.151 54.25H353.151C353.151 62.1154 355.658 68.9164 360.677 74.5999L362.176 73.2761ZM355.151 54.25C355.151 46.85 357.494 40.5257 362.176 35.2239L360.677 33.9001C355.658 39.5836 353.151 46.3846 353.151 54.25H355.151ZM362.176 35.2239C366.845 29.937 372.533 27.323 379.296 27.323V25.323C371.935 25.323 365.709 28.2017 360.677 33.9001L362.176 35.2239ZM379.296 27.323C382.577 27.323 385.481 28.0054 388.032 29.3479L388.963 27.5781C386.093 26.0673 382.863 25.323 379.296 25.323V27.323ZM388.032 29.3479C390.645 30.7234 392.584 32.3107 393.9 34.0872L395.507 32.8968C393.97 30.8213 391.771 29.0559 388.963 27.5781L388.032 29.3479ZM395.704 33.492V27.5H393.704V33.492H395.704ZM394.704 28.5H409.363V26.5H394.704V28.5ZM408.363 27.5V81H410.363V27.5H408.363ZM409.363 80H394.704V82H409.363V80ZM395.704 81V75.008H393.704V81H395.704ZM393.9 74.4128C392.584 76.1893 390.645 77.7766 388.032 79.1521L388.963 80.9219C391.771 79.4441 393.97 77.6787 395.507 75.6032L393.9 74.4128ZM388.032 79.1521C385.481 80.4946 382.577 81.177 379.296 81.177V83.177C382.863 83.177 386.093 82.4327 388.963 80.9219L388.032 79.1521ZM371.819 65.4135C374.526 68.3522 378.085 69.802 382.399 69.802V67.802C378.58 67.802 375.577 66.5411 373.29 64.0585L371.819 65.4135ZM382.399 69.802C386.712 69.802 390.242 68.3518 392.881 65.4028L391.39 64.0692C389.178 66.5415 386.218 67.802 382.399 67.802V69.802ZM392.871 65.4135C395.565 62.4886 396.881 58.7378 396.881 54.25H394.881C394.881 58.3222 393.7 61.562 391.4 64.0585L392.871 65.4135ZM396.881 54.25C396.881 49.7622 395.565 46.0114 392.871 43.0865L391.4 44.4415C393.7 46.938 394.881 50.1778 394.881 54.25H396.881ZM392.881 43.0972C390.242 40.1482 386.712 38.698 382.399 38.698V40.698C386.218 40.698 389.178 41.9585 391.39 44.4308L392.881 43.0972ZM382.399 38.698C378.085 38.698 374.526 40.1478 371.819 43.0865L373.29 44.4415C375.577 41.9589 378.58 40.698 382.399 40.698V38.698ZM371.809 43.0972C369.192 46.0229 367.917 49.77 367.917 54.25H369.917C369.917 50.17 371.067 46.9265 373.3 44.4308L371.809 43.0972ZM367.917 54.25C367.917 58.73 369.192 62.4771 371.809 65.4028L373.3 64.0692C371.067 61.5735 369.917 58.33 369.917 54.25H367.917ZM438.273 103.363V104.363H439.273V103.363H438.273ZM423.614 103.363H422.614V104.363H423.614V103.363ZM423.614 27.5V26.5H422.614V27.5H423.614ZM438.273 27.5H439.273V26.5H438.273V27.5ZM438.273 33.492H437.273V36.6507L439.091 34.0675L438.273 33.492ZM444.479 28.463L444.022 27.5732L444.479 28.463ZM471.657 34.562L472.406 33.9001L471.657 34.562ZM471.657 73.938L472.406 74.5999L471.657 73.938ZM444.479 80.037L444.022 80.9268L444.479 80.037ZM438.273 75.008L439.091 74.4325L437.273 71.8493V75.008H438.273ZM440.734 64.736L439.989 65.4028L439.993 65.4082L439.998 65.4135L440.734 64.736ZM460.315 64.736L459.579 64.0585L459.574 64.0638L459.57 64.0692L460.315 64.736ZM460.315 43.764L459.57 44.4308L459.574 44.4362L459.579 44.4415L460.315 43.764ZM440.734 43.764L439.998 43.0865L439.993 43.0918L439.989 43.0972L440.734 43.764ZM438.273 102.363H423.614V104.363H438.273V102.363ZM424.614 103.363V27.5H422.614V103.363H424.614ZM423.614 28.5H438.273V26.5H423.614V28.5ZM437.273 27.5V33.492H439.273V27.5H437.273ZM439.091 34.0675C440.327 32.3102 442.252 30.7288 444.935 29.3528L444.022 27.5732C441.142 29.0505 438.929 30.8218 437.455 32.9165L439.091 34.0675ZM444.935 29.3528C447.563 28.0053 450.507 27.323 453.788 27.323V25.323C450.22 25.323 446.959 26.0674 444.022 27.5732L444.935 29.3528ZM453.788 27.323C460.551 27.323 466.238 29.937 470.907 35.2239L472.406 33.9001C467.374 28.2017 461.149 25.323 453.788 25.323V27.323ZM470.907 35.2239C475.589 40.5257 477.933 46.85 477.933 54.25H479.933C479.933 46.3846 477.426 39.5836 472.406 33.9001L470.907 35.2239ZM477.933 54.25C477.933 61.65 475.589 67.9743 470.907 73.2761L472.406 74.5999C477.426 68.9164 479.933 62.1154 479.933 54.25H477.933ZM470.907 73.2761C466.238 78.563 460.551 81.177 453.788 81.177V83.177C461.149 83.177 467.374 80.2983 472.406 74.5999L470.907 73.2761ZM453.788 81.177C450.507 81.177 447.563 80.4947 444.935 79.1472L444.022 80.9268C446.959 82.4326 450.22 83.177 453.788 83.177V81.177ZM444.935 79.1472C442.252 77.7712 440.327 76.1898 439.091 74.4325L437.455 75.5835C438.929 77.6782 441.142 79.4495 444.022 80.9268L444.935 79.1472ZM437.273 75.008V103.363H439.273V75.008H437.273ZM439.998 65.4135C442.705 68.3522 446.264 69.802 450.578 69.802V67.802C446.759 67.802 443.756 66.5411 441.469 64.0585L439.998 65.4135ZM450.578 69.802C454.891 69.802 458.421 68.3518 461.06 65.4028L459.57 64.0692C457.357 66.5415 454.397 67.802 450.578 67.802V69.802ZM461.05 65.4135C463.744 62.4886 465.06 58.7378 465.06 54.25H463.06C463.06 58.3222 461.879 61.562 459.579 64.0585L461.05 65.4135ZM465.06 54.25C465.06 49.7622 463.744 46.0114 461.05 43.0865L459.579 44.4415C461.879 46.938 463.06 50.1778 463.06 54.25H465.06ZM461.06 43.0972C458.421 40.1482 454.891 38.698 450.578 38.698V40.698C454.397 40.698 457.357 41.9585 459.57 44.4308L461.06 43.0972ZM450.578 38.698C446.264 38.698 442.705 40.1478 439.998 43.0865L441.469 44.4415C443.756 41.9589 446.759 40.698 450.578 40.698V38.698ZM439.989 43.0972C437.371 46.0229 436.096 49.77 436.096 54.25H438.096C438.096 50.17 439.246 46.9265 441.479 44.4308L439.989 43.0972ZM436.096 54.25C436.096 58.73 437.371 62.4771 439.989 65.4028L441.479 64.0692C439.246 61.5735 438.096 58.33 438.096 54.25H436.096Z" fill="white"/>
</svg>
