<svg width="13" height="10" viewBox="0 0 13 10" fill="none" xmlns="http://www.w3.org/2000/svg">
<path fill-rule="evenodd" clip-rule="evenodd" d="M12.3125 1.1875C11.8594 1.38281 11.3672 1.52344 10.8594 1.57813C11.3828 1.26563 11.7813 0.773438 11.9688 0.1875C11.4844 0.476563 10.9375 0.687501 10.3672 0.796876C9.90626 0.304688 9.25001 0 8.52345 0C7.12501 0 6.00001 1.13281 6.00001 2.52344C6.00001 2.71875 6.02344 2.91407 6.06251 3.10157C3.96875 2.99219 2.10156 1.99219 0.859376 0.460938C0.640626 0.835938 0.515626 1.26563 0.515626 1.73438C0.515626 2.60938 0.960939 3.38282 1.64063 3.83594C1.22656 3.82032 0.835938 3.70313 0.500001 3.51563C0.500001 3.52344 0.500001 3.53907 0.500001 3.54688C0.500001 4.77344 1.36719 5.78907 2.52344 6.02344C2.3125 6.07813 2.08594 6.10938 1.85938 6.10938C1.69531 6.10938 1.53906 6.09376 1.38281 6.07032C1.70313 7.07032 2.63282 7.79688 3.74219 7.82032C2.875 8.50001 1.78906 8.89845 0.609376 8.89845C0.398438 8.89845 0.203125 8.89064 0 8.8672C1.11719 9.58595 2.44532 10 3.875 10C8.51564 10 11.0547 6.15626 11.0547 2.82032C11.0547 2.71094 11.0547 2.60157 11.0469 2.49219C11.5391 2.13281 11.9688 1.6875 12.3125 1.1875Z" fill="white"/>
</svg>
