<svg width="20" height="20" viewBox="0 0 20 20" fill="none" xmlns="http://www.w3.org/2000/svg">
<path fill-rule="evenodd" clip-rule="evenodd" d="M3.18946 9.07317C7.50829 7.19152 10.3882 5.95103 11.8291 5.35169C15.9434 3.64043 16.7983 3.34317 17.3555 3.33336C17.4781 3.3312 17.7521 3.36157 17.9296 3.5056C18.0795 3.62721 18.1207 3.7915 18.1404 3.9068C18.1602 4.02211 18.1847 4.28477 18.1652 4.49001C17.9422 6.83259 16.9775 12.5174 16.4867 15.1411C16.2791 16.2513 15.8702 16.6235 15.4743 16.66C14.614 16.7391 13.9607 16.0914 13.1274 15.5452C11.8235 14.6905 11.0869 14.1584 9.82123 13.3244C8.35854 12.3605 9.30674 11.8307 10.1403 10.9649C10.3585 10.7383 14.1491 7.29048 14.2225 6.97771C14.2316 6.93859 14.2401 6.79278 14.1535 6.71578C14.0669 6.63879 13.939 6.66512 13.8468 6.68606C13.716 6.71574 11.633 8.09252 7.5978 10.8164C7.00655 11.2224 6.47101 11.4202 5.99119 11.4098C5.46222 11.3984 4.44471 11.1108 3.68829 10.8649C2.7605 10.5633 2.02312 10.4038 2.08733 9.89166C2.12078 9.62488 2.48815 9.35205 3.18946 9.07317Z" fill="white"/>
</svg>
